<svg width="30" height="30" viewBox="0 0 30 30" fill="none" xmlns="http://www.w3.org/2000/svg">
<path d="M26.2873 18.2099H11.0194L11.3603 20.0309H25.3404C26.1425 20.0309 26.737 20.8447 26.5593 21.6993L26.2719 23.0807C27.2454 23.597 27.9167 24.6874 27.9167 25.9491C27.9167 27.7247 26.5876 29.1611 24.9571 29.1355C23.4038 29.1111 22.1264 27.7338 22.0844 26.0371C22.0615 25.1103 22.4014 24.2702 22.9596 23.6728H12.0404C12.5809 24.2513 12.9167 25.0571 12.9167 25.9491C12.9167 27.7594 11.535 29.2172 9.86094 29.1323C8.37448 29.0569 7.16557 27.7446 7.08745 26.121C7.02714 24.8671 7.63099 23.762 8.54844 23.1854L4.88974 3.64198H1.25C0.559636 3.64198 0 3.03052 0 2.27624V1.36574C0 0.611454 0.559636 0 1.25 0H6.59005C7.18386 0 7.69568 0.456442 7.81469 1.09202L8.29208 3.64198H28.7495C29.5516 3.64198 30.1462 4.45579 29.9684 5.3104L27.5063 17.1468C27.3769 17.7686 26.871 18.2099 26.2873 18.2099ZM21.25 9.56019H18.75V7.28395C18.75 6.78108 18.3769 6.37346 17.9167 6.37346H17.0833C16.6231 6.37346 16.25 6.78108 16.25 7.28395V9.56019H13.75C13.2897 9.56019 12.9167 9.9678 12.9167 10.4707V11.3812C12.9167 11.8841 13.2897 12.2917 13.75 12.2917H16.25V14.5679C16.25 15.0708 16.6231 15.4784 17.0833 15.4784H17.9167C18.3769 15.4784 18.75 15.0708 18.75 14.5679V12.2917H21.25C21.7103 12.2917 22.0833 11.8841 22.0833 11.3812V10.4707C22.0833 9.9678 21.7103 9.56019 21.25 9.56019Z" fill="currentColor"/>
</svg>
