<svg width="16" height="16" viewBox="0 0 16 16" fill="none" xmlns="http://www.w3.org/2000/svg">
<path d="M7.99967 0C4.80452 0 2.20508 2.59944 2.20508 5.79456C2.20508 9.75981 7.39067 15.581 7.61145 15.8269C7.81883 16.0579 8.18089 16.0575 8.38789 15.8269C8.60867 15.581 13.7943 9.75981 13.7943 5.79456C13.7942 2.59944 11.1948 0 7.99967 0ZM7.99967 8.70997C6.39211 8.70997 5.0843 7.40212 5.0843 5.79456C5.0843 4.187 6.39214 2.87919 7.99967 2.87919C9.6072 2.87919 10.915 4.18703 10.915 5.79459C10.915 7.40216 9.6072 8.70997 7.99967 8.70997Z" fill="currentColor"/>
</svg>
