<svg width="16" height="16" viewBox="0 0 16 16" fill="none" xmlns="http://www.w3.org/2000/svg">
<g clip-path="url(#clip0_1208_288)">
<path d="M12.7188 0.5C10.9097 0.5 9.4375 1.97216 9.4375 3.78125C9.4375 5.59034 10.9097 7.0625 12.7188 7.0625C14.5278 7.0625 16 5.59034 16 3.78125C16 1.97216 14.5278 0.5 12.7188 0.5ZM14.125 4.25H13.1875V5.1875H12.25V4.25H11.3125V3.3125H12.25V2.375H13.1875V3.3125H14.125V4.25Z" fill="#FCDB45"/>
<path d="M4.28125 11.75C4.54063 11.75 13.4302 11.75 13.0813 11.75L14.1204 7.74228C13.7948 7.85797 13.4518 7.92978 13.0952 7.96194L13.0854 8H10.8842L10.9191 7.58153C10.5952 7.42737 10.2993 7.23031 10.0271 7.00241L9.94391 8H7.99359L7.83731 6.125H9.21416C9.02128 5.83747 8.87731 5.51888 8.75912 5.1875H4.34472L3.71959 2.375H0V3.3125H2.96794L4.63419 10.8125H4.28125C3.50581 10.8125 2.875 11.4433 2.875 12.2188C2.875 12.9942 3.50581 13.625 4.28125 13.625H4.83634C4.78381 13.7723 4.75 13.9286 4.75 14.0938C4.75 14.8692 5.38081 15.5 6.15625 15.5C6.93169 15.5 7.5625 14.8692 7.5625 14.0938C7.5625 13.9286 7.52869 13.7723 7.47616 13.625H9.52384C9.47131 13.7723 9.4375 13.9286 9.4375 14.0938C9.4375 14.8692 10.0683 15.5 10.8438 15.5C11.6192 15.5 12.25 14.8692 12.25 14.0938C12.25 13.9286 12.2162 13.7723 12.1637 13.625H13.1875V12.6875H4.28125C4.02262 12.6875 3.8125 12.4774 3.8125 12.2188C3.8125 11.9601 4.02262 11.75 4.28125 11.75ZM10.8061 8.9375H12.8423L12.3562 10.8125H10.6498L10.8061 8.9375ZM9.86578 8.9375L9.7095 10.8125H8.22794L8.07166 8.9375H9.86578ZM7.28766 10.8125H5.59491L5.17816 8.9375H7.13137L7.28766 10.8125ZM4.55306 6.125H6.89703L7.05331 8H4.96984L4.55306 6.125ZM6.625 14.0938C6.625 14.3524 6.41488 14.5625 6.15625 14.5625C5.89762 14.5625 5.6875 14.3524 5.6875 14.0938C5.6875 13.8351 5.89762 13.625 6.15625 13.625C6.41488 13.625 6.625 13.8351 6.625 14.0938ZM11.3125 14.0938C11.3125 14.3524 11.1024 14.5625 10.8438 14.5625C10.5851 14.5625 10.375 14.3524 10.375 14.0938C10.375 13.8351 10.5851 13.625 10.8438 13.625C11.1024 13.625 11.3125 13.8351 11.3125 14.0938Z" fill="currentColor"/>
</g>
<defs>
<clipPath id="clip0_1208_288">
<rect width="16" height="16" fill="white"/>
</clipPath>
</defs>
</svg>
