<svg width="204" height="206" viewBox="0 0 204 206" fill="none" xmlns="http://www.w3.org/2000/svg">
<path d="M201.511 88.2499C199.363 85.0249 196.106 82.8026 192.32 81.9602C194.762 77.3159 194.663 71.5212 191.552 66.8518C189.339 63.5278 186 61.3809 182.365 60.5683C183.014 59.3393 183.493 58.0128 183.779 56.6141C184.572 52.7242 183.798 48.7605 181.592 45.4522C179.444 42.2255 176.187 40.0032 172.401 39.1624C174.844 34.5181 174.744 28.7234 171.633 24.0525C167.085 17.2236 157.793 15.3455 150.922 19.8687L136.046 29.6633C128.117 25.665 119.683 22.8282 110.93 21.2125C108.163 17.0366 104.946 13.1546 101.345 9.6844L95.191 3.75454C90.6839 -0.589519 83.616 -1.24176 78.3833 2.20489C72.1927 6.28019 70.4917 14.6037 74.5909 20.7583C74.7521 21.0019 74.9102 21.2471 75.0667 21.4923C54.8935 25.5503 36.5082 36.1935 22.9002 51.7891C8.13348 68.7142 0 90.3905 0 112.824C0 117.124 0.295619 121.432 0.880534 125.625C5.38754 158.223 27.2286 186.315 57.8781 198.94C69.2444 203.624 81.3048 206 93.7192 206C113.38 206 132.2 200.014 148.146 188.69C163.746 177.61 175.418 162.319 181.901 144.471C182.506 142.808 181.638 140.971 179.966 140.371C178.292 139.77 176.445 140.632 175.841 142.296C169.804 158.916 158.932 173.156 144.4 183.477C129.554 194.021 112.029 199.594 93.7192 199.594C84.253 199.594 75.0098 198.109 66.1634 195.179L92.377 177.921C92.3786 177.919 92.3802 177.919 92.3818 177.918C92.3834 177.918 92.3834 177.916 92.3849 177.915L114.171 163.572H114.172C116.128 162.283 117.464 160.315 117.931 158.028C118.399 155.742 117.944 153.409 116.648 151.465L116.36 151.031L120.592 148.245C123.611 146.257 127.243 145.477 130.819 146.048C135.996 146.874 141.254 145.743 145.623 142.865L180.724 119.755C180.484 122.782 180.089 125.792 179.537 128.752C179.212 130.491 180.367 132.164 182.117 132.486C182.315 132.523 182.514 132.541 182.708 132.541C184.231 132.541 185.584 131.463 185.872 129.921C186.765 125.145 187.279 120.252 187.411 115.353L197.303 108.84C200.631 106.649 202.902 103.3 203.696 99.4118C204.491 95.522 203.715 91.5583 201.511 88.2499ZM129.791 33.781L119.947 40.2625L118.009 35.0714C117.2 32.9056 116.272 30.7823 115.244 28.7046C120.238 29.9635 125.101 31.6609 129.791 33.781ZM27.7677 55.987C40.846 40.9981 58.6606 30.9222 78.1494 27.4284C81.2763 34.9598 82.0256 43.3744 80.1571 51.3946L72.3018 85.1333C71.0672 83.8226 69.4642 82.9189 67.6588 82.5543C65.3571 82.0875 63.0127 82.5417 61.0572 83.8304L38.8067 98.4783C38.8052 98.4783 38.8052 98.4783 38.8036 98.4798C38.8036 98.4798 38.802 98.4798 38.802 98.4814L6.71071 119.609C6.53524 117.359 6.44355 115.091 6.44355 112.824C6.44355 91.9339 14.0174 71.7475 27.7677 55.987ZM111.618 156.751C111.493 157.36 111.135 157.887 110.612 158.231H110.614L91.4791 170.828L55.9653 118.173C54.9741 116.703 52.9727 116.312 51.4946 117.297C50.0181 118.283 49.6229 120.271 50.6141 121.74L86.1058 174.366L58.7903 192.35C31.6471 180.547 12.2231 155.621 7.55331 126.616L39.6825 105.532L43.3801 111.017C44.003 111.938 45.0211 112.436 46.0597 112.436C46.6762 112.436 47.3006 112.262 47.8508 111.894C49.3289 110.909 49.7241 108.919 48.7329 107.449L45.0606 102.003L64.6157 89.1709C65.1358 88.8267 65.7602 88.7073 66.3736 88.8314C66.987 88.9556 67.5166 89.3108 67.8628 89.8294L111.276 155.003C111.621 155.52 111.742 156.141 111.618 156.751ZM197.382 98.1357C196.93 100.349 195.638 102.253 193.744 103.5L182.437 110.945C182.433 110.946 182.43 110.949 182.425 110.951L142.065 137.525C139.045 139.513 135.414 140.294 131.838 139.722C126.663 138.897 121.405 140.027 117.034 142.904L112.802 145.691L77.2451 92.3127L86.4362 52.8405C88.8027 42.6719 87.5554 31.9611 83.0469 22.6301C83.0058 22.5327 82.9615 22.4384 82.9109 22.3457C82.0446 20.5823 81.0613 18.8707 79.9626 17.2205C77.8253 14.0112 78.7122 9.67183 81.9418 7.54537C84.6704 5.74897 88.3569 6.08845 90.7061 8.35321L96.8603 14.2846C103.517 20.7017 108.742 28.6606 111.967 37.3015L115.318 46.2773C115.325 46.2946 115.331 46.3087 115.337 46.3244C115.345 46.3449 115.355 46.3669 115.363 46.3873C115.386 46.4423 115.408 46.4926 115.432 46.535C115.497 46.6702 115.568 46.8038 115.653 46.9311C116.637 48.4069 118.635 48.8108 120.118 47.8332L154.481 25.2108C158.389 22.638 163.673 23.7051 166.261 27.5903C168.849 31.4754 167.776 36.7295 163.868 39.3023L160.885 41.2668C160.885 41.2668 160.883 41.2668 160.882 41.2684L154.228 45.6502C154.218 45.6565 154.212 45.6628 154.203 45.6675C154.165 45.6942 154.128 45.7193 154.098 45.7445C152.723 46.7488 152.367 48.6583 153.32 50.0885C154.302 51.5643 156.302 51.9682 157.786 50.9907L164.445 46.6058C166.337 45.3626 168.603 44.9241 170.827 45.3736C173.051 45.8231 174.969 47.1071 176.221 48.99C177.474 50.8712 177.917 53.1266 177.465 55.3379C177.013 57.5508 175.721 59.4556 173.827 60.7019L164.187 67.0499C162.703 68.0259 162.297 70.0124 163.28 71.4882C163.899 72.4186 164.924 72.9231 165.969 72.9231C166.579 72.9231 167.197 72.7503 167.744 72.3903L169.236 71.4081L174.399 68.0086C178.309 65.4358 183.592 66.5029 186.18 70.3881C188.768 74.2748 187.694 79.5272 183.787 82.1016L178.971 85.2716C178.946 85.2874 178.921 85.3046 178.895 85.3219L174.147 88.448C172.662 89.424 172.256 91.4121 173.239 92.8879C173.859 93.8183 174.883 94.3228 175.928 94.3228C176.538 94.3228 177.157 94.1499 177.703 93.79L179.196 92.8077C179.196 92.8077 179.196 92.8062 179.197 92.8062L184.36 89.4082C186.253 88.1619 188.52 87.7219 190.746 88.1729C192.971 88.6208 194.887 89.9065 196.141 91.7877C197.393 93.669 197.834 95.9243 197.382 98.1357Z" fill="currentColor"/>
</svg>
