<svg width="16" height="16" viewBox="0 0 16 16" fill="none" xmlns="http://www.w3.org/2000/svg">
<path d="M8 0C3.58065 0 0 3.58065 0 8C0 12.4194 3.58065 16 8 16C12.4194 16 16 12.4194 16 8C16 3.58065 12.4194 0 8 0ZM11.2839 5.99355L9.27742 8L11.2839 10.0065C11.4355 10.1581 11.4355 10.4032 11.2839 10.5548L10.5548 11.2839C10.4032 11.4355 10.1581 11.4355 10.0065 11.2839L8 9.27742L5.99355 11.2839C5.84194 11.4355 5.59677 11.4355 5.44516 11.2839L4.71613 10.5548C4.56452 10.4032 4.56452 10.1581 4.71613 10.0065L6.72258 8L4.71613 5.99355C4.56452 5.84194 4.56452 5.59677 4.71613 5.44516L5.44516 4.71613C5.59677 4.56452 5.84194 4.56452 5.99355 4.71613L8 6.72258L10.0065 4.71613C10.1581 4.56452 10.4032 4.56452 10.5548 4.71613L11.2839 5.44516C11.4355 5.59677 11.4355 5.84194 11.2839 5.99355Z" fill="currentColor"/>
</svg>
