<svg width="180" height="204" viewBox="0 0 180 204" fill="none" xmlns="http://www.w3.org/2000/svg">
<path d="M180 190.532C180 190.532 180 190.532 180 190.529V89.3346C180 85.9205 178.608 82.5954 176.18 80.1958C176.177 80.1928 176.174 80.1869 176.168 80.1839C176.168 80.1839 176.162 80.1809 176.162 80.178C176.156 80.172 176.153 80.1691 176.147 80.1631L164.482 68.7196V62.0308C164.482 60.3935 163.152 59.0646 161.514 59.0646C159.875 59.0646 158.545 60.3935 158.545 62.0308V93.5733L104.609 147.374L96.1261 142.717C92.2882 140.608 87.7022 140.608 83.8643 142.717L75.381 147.374L21.4449 93.5733V42.368C21.4449 38.5505 24.5527 35.4479 28.3698 35.4479H151.615C155.435 35.4479 158.54 38.5535 158.54 42.368V49.4038C158.54 51.0411 159.869 52.37 161.508 52.37C163.146 52.37 164.476 51.0411 164.476 49.4038V42.368C164.476 35.2818 158.706 29.5155 151.615 29.5155H124.506L98.6313 4.13382C98.6046 4.10713 98.5749 4.08043 98.5452 4.05373C93.6714 -0.359953 86.322 -0.359953 81.4511 4.05373C81.4214 4.08043 81.3947 4.10713 81.365 4.13382L55.4878 29.5155H28.3787C21.2876 29.5155 15.5173 35.2818 15.5173 42.368V68.7196L3.85206 80.1602C3.85206 80.1602 3.84315 80.1691 3.83722 80.175C3.83722 80.175 3.83128 80.1809 3.82831 80.1809C3.82238 80.1869 3.81941 80.1898 3.81644 80.1958C1.39138 82.5954 -0.000732422 85.9205 -0.000732422 89.3346V123.182C-0.000732422 124.819 1.32904 126.148 2.96752 126.148C4.606 126.148 5.93577 124.819 5.93577 123.182V89.3346C5.93577 88.5041 6.09012 87.6854 6.37804 86.9142L16.39 96.9013L69.9699 150.349L5.93577 185.513V136.108C5.93577 134.471 4.606 133.142 2.96752 133.142C1.32904 133.142 -0.000732422 134.471 -0.000732422 136.108V190.526C-0.000732422 190.526 -0.000732422 190.529 -0.000732422 190.532C-0.000732422 190.544 -0.000732422 190.559 -0.000732422 190.571C0.0230136 197.565 5.72206 203.245 12.7271 203.245H122.315C123.953 203.245 125.283 201.916 125.283 200.279C125.283 198.642 123.953 197.313 122.315 197.313H12.7212C9.5422 197.313 6.8678 195.121 6.13168 192.169L76.2923 153.642L86.7257 147.911C88.7738 146.787 91.2196 146.787 93.2677 147.911L103.698 153.639L173.859 192.166C173.123 195.118 170.448 197.31 167.269 197.31H135.245C133.606 197.31 132.276 198.639 132.276 200.276C132.276 201.913 133.606 203.242 135.245 203.242H167.269C174.271 203.242 179.97 197.562 179.997 190.574C179.997 190.559 179.997 190.541 179.997 190.526L180 190.532ZM85.476 8.41403C88.0643 6.10634 91.932 6.10634 94.5203 8.41403L116.034 29.5155H63.9592L85.476 8.41403ZM15.5114 87.6528L10.1448 82.2988L15.5114 77.0338V87.6528ZM163.609 96.9013L173.621 86.9142C173.909 87.6824 174.064 88.5041 174.064 89.3346V185.513L110.029 150.349L163.609 96.9013ZM169.849 82.2958L164.482 87.6498V77.0308L169.849 82.2958Z" fill="white"/>
<path d="M99.4176 63.9084H99.4027C97.7702 63.9084 96.4434 65.2254 96.4345 66.8598L96.4285 68.3547C94.327 66.7382 91.7713 65.8246 88.9248 65.8246C81.9227 65.8246 74.6831 71.8756 74.6831 82.0051C74.6831 91.2418 80.9432 98.7582 88.6398 98.7582C91.9851 98.7582 95.0127 97.3492 97.3665 94.9763C97.8325 95.9225 98.4469 96.7916 99.192 97.5391C100.848 99.2001 102.979 100.117 105.197 100.117C111.614 100.117 115.678 95.6526 117.34 91.4732C119.922 84.9862 120.385 79.5195 118.845 73.7502C118.836 73.7206 118.827 73.6909 118.818 73.6583C116.485 65.9343 111.264 59.6075 104.119 55.8463C96.9747 52.0882 88.8031 51.3644 81.1034 53.8145C73.8075 56.134 67.7374 61.138 64.0122 67.9039C60.2841 74.6698 59.3046 82.4708 61.2518 89.8715C62.9377 96.2784 66.5798 101.807 71.7831 105.859C76.7935 109.76 83.0328 112.002 89.3522 112.177C89.3789 112.177 89.4086 112.177 89.4353 112.177C91.0352 112.177 92.3561 110.902 92.4006 109.294C92.4451 107.657 91.1539 106.292 89.5155 106.248C84.4516 106.108 79.4472 104.308 75.4281 101.179C71.2607 97.9336 68.3429 93.5021 66.9894 88.3617C65.4311 82.4412 66.2206 76.1914 69.2097 70.7633C72.1987 65.3352 77.0607 61.3249 82.9022 59.468C89.0732 57.5044 95.6271 58.0828 101.353 61.0965C107.061 64.1012 111.237 69.1497 113.116 75.3134C113.158 75.4647 113.19 75.616 113.229 75.7702C113.259 75.8948 113.291 76.0194 113.321 76.1439C113.354 76.2952 113.383 76.4435 113.413 76.5948C113.44 76.7224 113.466 76.8529 113.49 76.9804C113.517 77.1258 113.538 77.2711 113.558 77.4164C113.579 77.5499 113.603 77.6804 113.621 77.8139C113.638 77.9533 113.653 78.0957 113.668 78.2351C113.683 78.3716 113.701 78.508 113.713 78.6444C113.725 78.7779 113.73 78.9144 113.739 79.0478C113.748 79.1902 113.76 79.3326 113.769 79.4779C113.775 79.6055 113.775 79.736 113.778 79.8665C113.781 80.0148 113.787 80.1661 113.787 80.3144C113.787 80.439 113.781 80.5665 113.778 80.6911C113.775 80.8454 113.775 80.9996 113.766 81.1538C113.76 81.2755 113.748 81.4 113.739 81.5216C113.728 81.6818 113.722 81.839 113.707 81.9992C113.695 82.1179 113.68 82.2395 113.665 82.3581C113.647 82.5242 113.63 82.6874 113.609 82.8564C113.594 82.9721 113.573 83.0878 113.555 83.2035C113.529 83.3755 113.505 83.5476 113.472 83.7226C113.451 83.8323 113.428 83.945 113.404 84.0577C113.368 84.2387 113.336 84.4196 113.294 84.6035C113.27 84.7133 113.241 84.826 113.214 84.9387C113.169 85.1256 113.128 85.3124 113.077 85.5023C113.051 85.6002 113.021 85.701 112.994 85.7989C112.938 86.0036 112.885 86.2082 112.822 86.4159C112.804 86.4752 112.784 86.5375 112.763 86.5998C112.499 87.4659 112.187 88.3557 111.819 89.2812C111.231 90.7554 109.412 94.1843 105.191 94.1843C104.345 94.1843 103.704 93.6652 103.395 93.3538C102.674 92.63 102.249 91.5652 102.252 90.5062L102.291 82.5717C102.297 82.3551 102.303 82.1386 102.303 81.9221C102.303 81.7856 102.297 81.6492 102.294 81.5157L102.365 66.8894C102.374 65.2521 101.05 63.9173 99.4116 63.9084H99.4176ZM88.6369 92.8258C84.7811 92.8258 80.6166 88.688 80.6166 82.0051C80.6166 75.3223 84.8405 71.757 88.9218 71.757C93.0032 71.757 96.2059 75.7198 96.3603 81.4534L96.3543 82.5361C96.1287 88.2638 92.7509 92.8258 88.6339 92.8258H88.6369Z" fill="white"/>
</svg>
