<svg width="16" height="16" viewBox="0 0 16 16" fill="none" xmlns="http://www.w3.org/2000/svg">
<g clip-path="url(#clip0_1208_318)">
<path d="M13.6311 5.30087C13.2053 4.93484 12.775 4.60737 12.3431 4.31984L15.8627 0.800241C16.0458 0.61721 16.0458 0.320397 15.8627 0.137334C15.6797 -0.0456968 15.3829 -0.0456968 15.1998 0.137334L11.517 3.82015C11.3903 3.75118 11.2636 3.68537 11.137 3.62365C10.076 3.10618 9.02056 2.8438 8.00002 2.8438C6.97949 2.8438 5.92402 3.10618 4.86302 3.62365C4.02984 4.03005 3.19071 4.59437 2.36899 5.30087C0.979805 6.49543 0.123992 7.67662 0.0882422 7.72634C-0.0294141 7.88984 -0.0294141 8.11024 0.0882422 8.27377C0.123992 8.32349 0.979773 9.50471 2.36899 10.6992C2.79471 11.0653 3.22509 11.3927 3.6569 11.6803L0.137336 15.1999C-0.0457266 15.3829 -0.0457266 15.6797 0.137336 15.8628C0.228867 15.9543 0.348805 16.0001 0.468773 16.0001C0.588742 16.0001 0.708711 15.9543 0.800211 15.8627L4.48302 12.1799C4.60977 12.2489 4.73646 12.3147 4.86302 12.3764C5.92405 12.8939 6.97949 13.1563 8.00002 13.1563C9.02056 13.1563 10.076 12.8939 11.137 12.3765C11.9702 11.9701 12.8093 11.4057 13.6311 10.6992C15.0203 9.50468 15.8761 8.32349 15.9118 8.27377C16.0295 8.11027 16.0295 7.88987 15.9118 7.72634C15.8761 7.67662 15.0203 6.49543 13.6311 5.30087ZM2.99605 10.002C2.07171 9.20962 1.38659 8.40749 1.06071 8.00021C1.84221 7.02512 4.69134 3.7813 8.00002 3.7813C9.00384 3.7813 9.96399 4.08555 10.8207 4.51649L9.96406 5.37312C9.41612 4.96237 8.73599 4.7188 8.00002 4.7188C6.19074 4.7188 4.71877 6.19077 4.71877 8.00005C4.71877 8.73602 4.96234 9.41615 5.37309 9.96409L4.33559 11.0016C3.83177 10.6798 3.37959 10.3307 2.99605 10.002ZM10.3438 8.00005C10.3438 9.2924 9.29237 10.3438 8.00002 10.3438C7.52302 10.3438 7.07909 10.2002 6.70846 9.95449L9.95449 6.70849C10.2002 7.07912 10.3438 7.52305 10.3438 8.00005ZM5.65627 8.00005C5.65627 6.70771 6.70768 5.6563 8.00002 5.6563C8.47702 5.6563 8.92096 5.79987 9.29159 6.04562L6.04559 9.29162C5.79987 8.92099 5.65627 8.47705 5.65627 8.00005ZM8.00002 12.2188C6.99621 12.2188 6.03605 11.9146 5.17937 11.4836L6.03599 10.627C6.58396 11.0377 7.26409 11.2813 8.00002 11.2813C9.80931 11.2813 11.2813 9.80934 11.2813 8.00005C11.2813 7.26409 11.0377 6.58396 10.627 6.03602L11.6644 4.99852C12.1683 5.32027 12.6204 5.6694 13.004 5.99818C13.9284 6.79062 14.6135 7.59277 14.9393 7.99993C14.1578 8.97499 11.3087 12.2188 8.00002 12.2188Z" fill="black"/>
</g>
<defs>
<clipPath id="clip0_1208_318">
<rect width="16" height="16" fill="white"/>
</clipPath>
</defs>
</svg>
