<svg width="10" height="10" viewBox="0 0 10 10" fill="none" xmlns="http://www.w3.org/2000/svg">
<g clip-path="url(#clip0_4_1537)"> 
<path d="M7.24026 0H2.75956C1.23794 0 0 1.238 0 2.75962V7.24032C0 8.762 1.23794 9.99994 2.75956 9.99994H7.24026C8.762 9.99994 9.99994 8.76194 9.99994 7.24032V2.75962C10 1.238 8.762 0 7.24026 0ZM9.11276 7.24032C9.11276 8.27277 8.27277 9.1127 7.24032 9.1127H2.75956C1.72717 9.11276 0.887243 8.27277 0.887243 7.24032V2.75962C0.887243 1.72723 1.72717 0.887243 2.75956 0.887243H7.24026C8.27271 0.887243 9.1127 1.72723 9.1127 2.75962V7.24032H9.11276Z" fill="currentColor"/>
<path d="M5.00007 2.42334C3.57924 2.42334 2.42334 3.57924 2.42334 5.00007C2.42334 6.42084 3.57924 7.57668 5.00007 7.57668C6.4209 7.57668 7.5768 6.42084 7.5768 5.00007C7.5768 3.57924 6.4209 2.42334 5.00007 2.42334ZM5.00007 6.68938C4.06853 6.68938 3.31058 5.93156 3.31058 5.00001C3.31058 4.06841 4.06847 3.31052 5.00007 3.31052C5.93168 3.31052 6.68956 4.06841 6.68956 5.00001C6.68956 5.93156 5.93162 6.68938 5.00007 6.68938Z" fill="currentColor"/>
<path d="M7.68483 1.67102C7.51388 1.67102 7.34596 1.74023 7.22523 1.86148C7.10392 1.98215 7.03418 2.15013 7.03418 2.32167C7.03418 2.49267 7.10398 2.66059 7.22523 2.78185C7.3459 2.90251 7.51388 2.97231 7.68483 2.97231C7.85636 2.97231 8.02375 2.90251 8.14501 2.78185C8.26627 2.66059 8.33547 2.49261 8.33547 2.32167C8.33547 2.15013 8.26627 1.98215 8.14501 1.86148C8.02434 1.74023 7.85636 1.67102 7.68483 1.67102Z" fill="currentColor" />
</g>
<defs>
<clipPath id="clip0_4_1537">
<rect width="10" height="10" fill="white"/>
</clipPath>
</defs>
</svg>
