<svg width="18" height="18" viewBox="0 0 18 18" fill="none" xmlns="http://www.w3.org/2000/svg">
<path d="M9 0C5.83717 0 3.19922 2.54777 3.19922 5.80078C3.19922 7.03835 3.5711 8.14191 4.28481 9.17599L8.55608 15.8409C8.76329 16.1649 9.23713 16.1643 9.44392 15.8409L13.7337 9.15332C14.4321 8.16609 14.8008 7.00689 14.8008 5.80078C14.8008 2.60223 12.1986 0 9 0ZM9 8.4375C7.54618 8.4375 6.36328 7.2546 6.36328 5.80078C6.36328 4.34696 7.54618 3.16406 9 3.16406C10.4538 3.16406 11.6367 4.34696 11.6367 5.80078C11.6367 7.2546 10.4538 8.4375 9 8.4375Z" fill="currentColor"/>
<path d="M13.1226 12.1182L10.4672 16.2697C9.77984 17.3413 8.21633 17.3378 7.5323 16.2707L4.87259 12.1193C2.53245 12.6603 1.08984 13.6515 1.08984 14.8359C1.08984 16.8912 5.16544 18 9 18C12.8346 18 16.9102 16.8912 16.9102 14.8359C16.9102 13.6506 15.4656 12.6589 13.1226 12.1182Z" fill="currentColor"/>
</svg>
