<svg width="16" height="16" viewBox="0 0 16 16" fill="none" xmlns="http://www.w3.org/2000/svg">
<path d="M13.2769 6.46146H12.9651V5.00233C12.9651 2.30355 10.8234 0.0491111 8.14663 0.000986167C8.07349 -0.000328722 7.92734 -0.000328722 7.85423 0.000986167C5.17735 0.0491111 3.03572 2.30355 3.03572 5.00233V6.46146H2.72393C2.24347 6.46146 1.85156 6.95724 1.85156 7.56956V14.888C1.85156 15.4996 2.24347 16 2.72396 16H13.2769C13.7573 16 14.1493 15.4996 14.1493 14.888V7.56956C14.1493 6.95728 13.7574 6.46146 13.2769 6.46146ZM8.98908 11.2213V13.4327C8.98908 13.6859 8.77708 13.9002 8.52367 13.9002H7.47722C7.22377 13.9002 7.01178 13.6859 7.01178 13.4327V11.2213C6.76599 10.9794 6.6229 10.6449 6.6229 10.2748C6.6229 9.57348 7.165 8.97086 7.85426 8.94302C7.9273 8.94006 8.07362 8.94006 8.14666 8.94302C8.83593 8.97086 9.37802 9.57348 9.37802 10.2748C9.37796 10.6449 9.23486 10.9794 8.98908 11.2213ZM10.9103 6.46146H8.14663H7.85423H5.0906V5.00233C5.0906 3.39472 6.39707 2.06546 8.00041 2.06546C9.60376 2.06546 10.9103 3.39472 10.9103 5.00233V6.46146H10.9103Z" fill="currentColor"/>
</svg>
