<svg width="18" height="18" viewBox="0 0 18 18" fill="none" xmlns="http://www.w3.org/2000/svg">
<g clip-path="url(#clip0_82_705)">
<path d="M17.4727 3.16406H15.8906V15.8906C15.8906 16.5038 16.1564 17.0518 16.5765 17.4356C16.7859 17.6268 17.1054 17.6263 17.3147 17.435C17.7345 17.0513 18 16.5035 18 15.8906V3.69141C18 3.39993 17.7641 3.16406 17.4727 3.16406Z" fill="currentColor"/>
<path d="M6.32812 9.49219H3.16406V12.6563H6.32812V9.49219Z" fill="currentColor"/>
<path d="M11.6016 3.16406H3.16406V6.32813H11.6016V3.16406Z" fill="currentColor"/>
<path d="M14.7656 15.8906C14.7656 -4.42554 14.7656 5.3428 14.7656 0.527344C14.7656 0.235863 14.5298 0 14.2383 0H0.527344C0.235863 0 0 0.235863 0 0.527344V15.3633C0 16.8171 1.1829 18 2.63672 18H15.5886C15.0826 17.4389 14.7656 16.7039 14.7656 15.8906ZM2.10938 8.96484C2.10938 8.67336 2.34524 8.4375 2.63672 8.4375H6.85547C7.14695 8.4375 7.38281 8.67336 7.38281 8.96484V13.1836C7.38281 13.4751 7.14695 13.7109 6.85547 13.7109H2.63672C2.34524 13.7109 2.10938 13.4751 2.10938 13.1836V8.96484ZM12.1289 15.8906H2.63672C1.94157 15.8906 1.93873 14.8359 2.63672 14.8359H12.1289C12.8241 14.8359 12.8269 15.8906 12.1289 15.8906ZM12.1289 13.7109H8.96484C8.2697 13.7109 8.26685 12.6562 8.96484 12.6562H12.1289C12.8241 12.6562 12.8269 13.7109 12.1289 13.7109ZM12.1289 11.6016H8.96484C8.2697 11.6016 8.26685 10.5469 8.96484 10.5469H12.1289C12.8241 10.5469 12.8269 11.6016 12.1289 11.6016ZM12.1289 9.49219H8.96484C8.2697 9.49219 8.26685 8.4375 8.96484 8.4375H12.1289C12.8241 8.4375 12.8269 9.49219 12.1289 9.49219ZM12.6562 6.85547C12.6562 7.14695 12.4204 7.38281 12.1289 7.38281H2.63672C2.34524 7.38281 2.10938 7.14695 2.10938 6.85547V2.63672C2.10938 2.34524 2.34524 2.10938 2.63672 2.10938H12.1289C12.4204 2.10938 12.6562 2.34524 12.6562 2.63672V6.85547Z" fill="currentColor"/>
</g>
<defs>
<clipPath id="clip0_82_705">
<rect width="18" height="18" fill="white"/>
</clipPath>
</defs>
</svg>
