<svg width="32" height="34" viewBox="0 0 32 34" fill="none" xmlns="http://www.w3.org/2000/svg">
<path d="M30.383 0.661902C29.3664 -0.0421392 28.0694 -0.204031 26.8138 0.27035L16.5469 4.80332H7.19854C3.22842 4.80332 0 8.18046 0 12.3332C0 15.5578 1.95776 18.2931 4.68545 19.3642L8.67439 29.5332C9.18289 30.8743 10.2033 31.9584 11.5111 32.547C12.8189 33.1357 14.307 33.1808 15.648 32.6723C16.989 32.1638 18.0731 31.1434 18.6618 29.8356C19.2504 28.5278 19.2955 27.0397 18.787 25.6987L16.4659 19.863C16.5412 19.863 26.9136 24.4374 26.9136 24.4374C27.4834 24.6496 28.0961 24.721 28.6995 24.6457C29.3028 24.5703 29.8791 24.3503 30.3792 24.0045C31.3957 23.3023 32 22.1465 32 20.9116V3.75479C32 2.51989 31.3957 1.36406 30.383 0.661902ZM7.19666 16.0981C5.30478 16.0981 3.76493 14.4095 3.76493 12.3332C3.76493 10.2568 5.30478 8.56825 7.19854 8.56825H15.0597V16.0981H7.19666ZM15.0861 28.5694C14.3877 29.5784 12.637 29.3789 12.1871 28.1835L8.92852 19.863H12.4186L15.2781 27.054C15.3733 27.3027 15.4059 27.571 15.3731 27.8352C15.3403 28.0995 15.243 28.3516 15.0898 28.5694H15.0861ZM18.8246 16.7532V7.91315L28.237 3.75479L28.3367 20.9511L18.8246 16.7532Z" fill="black"/>
</svg>
