<svg width="16" height="19" viewBox="0 0 16 19" fill="none" xmlns="http://www.w3.org/2000/svg">
<path d="M15.6925 13.1877C15.0025 12.432 13.7114 11.2952 13.7114 7.5714C13.7114 4.74305 11.7657 2.47891 9.14214 1.92343V1.16483C9.14214 0.521626 8.63071 0 8 0C7.36929 0 6.85786 0.521626 6.85786 1.16483V1.92343C4.2343 2.47891 2.28859 4.74305 2.28859 7.5714C2.28859 11.2952 0.997522 12.432 0.307524 13.1877C0.0932387 13.4225 -0.00176102 13.7032 2.46924e-05 13.978C0.00395325 14.575 0.463595 15.1428 1.14645 15.1428H14.8536C15.5364 15.1428 15.9964 14.575 16 13.978C16.0018 13.7032 15.9068 13.4221 15.6925 13.1877ZM2.4118 13.3956C3.16966 12.3774 3.99823 10.6899 4.00216 7.59252C4.00216 7.58524 4.00001 7.57869 4.00001 7.5714C4.00001 5.31964 5.79072 3.49449 8 3.49449C10.2093 3.49449 12 5.31964 12 7.5714C12 7.57869 11.9978 7.58524 11.9978 7.59252C12.0018 10.6902 12.8303 12.3778 13.5882 13.3956H2.4118ZM8 18.6373C9.26142 18.6373 10.2846 17.5944 10.2846 16.3076H5.71536C5.71536 17.5944 6.73858 18.6373 8 18.6373Z" fill="currentColor"/>
</svg>
