<svg width="32" height="32" viewBox="0 0 32 32" fill="none" xmlns="http://www.w3.org/2000/svg">
<path d="M24.8889 12.4444C28.8162 12.4444 32 15.6282 32 19.5556V28.4444C32 30.4081 30.4081 32 28.4444 32H3.55556C1.59188 32 0 30.4081 0 28.4444V19.5556C0 15.6282 3.18375 12.4444 7.11111 12.4444C7.11111 8.88889 7.11111 7.11111 7.11111 7.11111H10.6667V12.4444H14.2222C14.2222 8.88889 14.2222 7.11111 14.2222 7.11111H17.7778V12.4444H21.3333C21.3333 8.88889 21.3333 7.11111 21.3333 7.11111H24.8889V12.4444ZM7.11111 16C5.14743 16 3.55556 17.5919 3.55556 19.5556V21.3333H28.4444V19.5556C28.4444 17.5919 26.8526 16 24.8889 16H7.11111ZM3.55556 24.8889V28.4444H28.4444V24.8889H3.55556ZM7.11111 1.77778C8.09295 1.77778 8.88889 0.98184 8.88889 0C9.87073 0 10.6667 0.795938 10.6667 1.77778V3.55556C10.6667 4.5374 9.87073 5.33333 8.88889 5.33333C7.90705 5.33333 7.11111 4.5374 7.11111 3.55556V1.77778ZM14.2222 1.77778C15.2041 1.77778 16 0.98184 16 0C16.9818 0 17.7778 0.795938 17.7778 1.77778V3.55556C17.7778 4.5374 16.9818 5.33333 16 5.33333C15.0182 5.33333 14.2222 4.5374 14.2222 3.55556V1.77778ZM21.3333 1.77778C22.3152 1.77778 23.1111 0.98184 23.1111 0C24.093 0 24.8889 0.795938 24.8889 1.77778V3.55556C24.8889 4.5374 24.093 5.33333 23.1111 5.33333C22.1293 5.33333 21.3333 4.5374 21.3333 3.55556V1.77778Z" fill="black"/>
</svg>
