<svg width="14" height="16" viewBox="0 0 14 16" fill="none" xmlns="http://www.w3.org/2000/svg">
<path d="M12.432 10.9126C11.5245 10.1025 10.6036 9.61175 9.70727 10.4206L9.17206 10.9095C8.78047 11.2644 8.0524 12.9225 5.23742 9.54261C2.42302 6.167 4.09783 5.64141 4.49 5.28959L5.02814 4.80011C5.91977 3.9894 5.58328 2.96882 4.94021 1.91826L4.55214 1.28193C3.90613 0.233818 3.20268 -0.454521 2.30871 0.354966L1.82567 0.795503C1.43057 1.09592 0.326148 2.07245 0.0582502 3.9276C-0.264165 6.15353 0.75291 8.70253 3.0831 11.4993C5.41035 14.2974 7.68895 15.7028 9.84738 15.6783C11.6412 15.6581 12.7245 14.6535 13.0633 14.2882L13.5481 13.847C14.4397 13.0381 13.8858 12.2146 12.9777 11.4027L12.432 10.9126Z" fill="currentColor"/>
</svg>
