<svg width="16" height="16" viewBox="0 0 16 16" fill="none" xmlns="http://www.w3.org/2000/svg">
<g filter="url(#filter0_i_1208_296)">
<g clip-path="url(#clip0_1208_296)">
<path d="M8 16C5.86316 16 3.85413 15.1678 2.34314 13.6569C0.832153 12.1459 0 10.1368 0 8C0 5.86316 0.832153 3.85413 2.34314 2.34314C3.85413 0.832153 5.86316 0 8 0C10.1368 0 12.1459 0.832153 13.6569 2.34314C15.1678 3.85413 16 5.86316 16 8C16 9.5791 15.5314 11.1149 14.6445 12.4412C14.4528 12.728 14.0646 12.8052 13.7776 12.6133C13.4907 12.4215 13.4136 12.0333 13.6055 11.7463C14.3542 10.6263 14.75 9.33093 14.75 8C14.75 4.27808 11.7219 1.25 8 1.25C4.27808 1.25 1.25 4.27808 1.25 8C1.25 11.7219 4.27808 14.75 8 14.75C9.2345 14.75 10.442 14.4138 11.4918 13.778C11.787 13.5991 12.1713 13.6934 12.3502 13.9886C12.5291 14.2839 12.4347 14.6682 12.1394 14.847C10.8943 15.6013 9.46289 16 8 16ZM10.8754 12.1049C11.3101 11.7872 11.483 11.252 11.3159 10.7411L10.783 9.11145L12.1797 8.10327C12.6119 7.79126 12.7914 7.23828 12.6262 6.72742C12.4589 6.20959 12.0016 5.875 11.4611 5.875H9.72461L9.19617 4.24902C9.02869 3.73706 8.57141 3.40625 8.03125 3.40625C7.49109 3.40625 7.03381 3.73706 6.86597 4.25024L6.33789 5.875H4.60144C4.06091 5.875 3.60364 6.20959 3.43628 6.72729C3.27112 7.23828 3.45056 7.79126 3.88281 8.10327L5.27954 9.11133L4.74658 10.7411C4.57947 11.252 4.75244 11.7872 5.18713 12.1047C5.62463 12.4243 6.19104 12.4259 6.63013 12.1089L8.03125 11.0973L9.43237 12.1089C9.651 12.2667 9.901 12.3456 10.1511 12.3456C10.4033 12.3456 10.6556 12.2653 10.8754 12.1049ZM6.34937 7.125C6.88464 7.125 7.35278 6.79346 7.51465 6.29871L8.03137 4.70898L8.54822 6.2998C8.70972 6.79346 9.17786 7.125 9.71313 7.125H11.3992L10.0341 8.11035C9.60156 8.42249 9.42224 8.97217 9.58777 9.47815L10.1019 11.0505L8.74988 10.0745C8.53943 9.92261 8.29089 9.84229 8.03125 9.84229C7.77148 9.84229 7.52295 9.92249 7.3125 10.0745L5.96045 11.0507L6.47473 9.47827C6.64026 8.97217 6.46082 8.42249 6.02844 8.11035L4.66345 7.125H6.34937Z" fill="currentColor"/>
</g>
</g>
<defs>
<filter id="filter0_i_1208_296" x="0" y="0" width="16" height="18" filterUnits="userSpaceOnUse" color-interpolation-filters="sRGB">
<feFlood flood-opacity="0" result="BackgroundImageFix"/>
<feBlend mode="normal" in="SourceGraphic" in2="BackgroundImageFix" result="shape"/>
<feColorMatrix in="SourceAlpha" type="matrix" values="0 0 0 0 0 0 0 0 0 0 0 0 0 0 0 0 0 0 127 0" result="hardAlpha"/>
<feOffset dy="3"/>
<feGaussianBlur stdDeviation="1"/>
<feComposite in2="hardAlpha" operator="arithmetic" k2="-1" k3="1"/>
<feColorMatrix type="matrix" values="0 0 0 0 0 0 0 0 0 0 0 0 0 0 0 0 0 0 0.05 0"/>
<feBlend mode="normal" in2="shape" result="effect1_innerShadow_1208_296"/>
</filter>
<clipPath id="clip0_1208_296">
<rect width="16" height="16" fill="white"/>
</clipPath>
</defs>
</svg>
