<svg width="16" height="16" viewBox="0 0 16 16" fill="none" xmlns="http://www.w3.org/2000/svg">
<g clip-path="url(#clip0_1208_278)">
<path d="M4.875 8C4.875 8.34519 5.15481 8.625 5.5 8.625H7.375V10.5C7.375 10.8452 7.65481 11.125 8 11.125C8.34519 11.125 8.625 10.8452 8.625 10.5V8.625H10.5C10.8452 8.625 11.125 8.34519 11.125 8C11.125 7.65481 10.8452 7.375 10.5 7.375H8.625V5.5C8.625 5.15481 8.34519 4.875 8 4.875C7.65481 4.875 7.375 5.15481 7.375 5.5V7.375H5.5C5.15481 7.375 4.875 7.65481 4.875 8Z" fill="black"/>
<path d="M5.01282 1.93125L5.82122 1.59638C6.1401 1.46425 6.29157 1.09866 6.15944 0.779753C6.02732 0.460846 5.66175 0.309315 5.34282 0.441534L4.53441 0.776409C4.21553 0.908534 4.06406 1.27413 4.19619 1.59303C4.32788 1.91088 4.69288 2.06369 5.01282 1.93125Z" fill="black"/>
<path d="M8 0C7.65481 0 7.375 0.279813 7.375 0.625C7.375 0.970187 7.65481 1.25 8 1.25C11.7306 1.25 14.75 4.269 14.75 8C14.75 11.7306 11.731 14.75 8 14.75C4.26944 14.75 1.25 11.731 1.25 8C1.25 7.65481 0.970187 7.375 0.625 7.375C0.279813 7.375 0 7.65481 0 8C0 12.4213 3.57803 16 8 16C12.4213 16 16 12.422 16 8C16 3.57866 12.422 0 8 0Z" fill="black"/>
<path d="M2.91756 3.53639L3.53628 2.91767C3.78037 2.67358 3.78037 2.27783 3.53628 2.03377C3.29219 1.7897 2.89644 1.78967 2.65237 2.03377L2.03366 2.65249C1.78956 2.89658 1.78956 3.29233 2.03366 3.53639C2.27769 3.78042 2.67347 3.78049 2.91756 3.53639Z" fill="black"/>
<path d="M0.779526 6.15934C1.09912 6.29171 1.46434 6.13927 1.59615 5.82112L1.93103 5.01268C2.06315 4.69377 1.91168 4.32818 1.59281 4.19605C1.27384 4.06396 0.908307 4.2154 0.776182 4.53427L0.441307 5.34268C0.309182 5.66162 0.460651 6.02721 0.779526 6.15934Z" fill="black"/>
</g>
<defs>
<clipPath id="clip0_1208_278">
<rect width="16" height="16" fill="white"/>
</clipPath>
</defs>
</svg>
