<svg width="26" height="18" viewBox="0 0 26 18" fill="none" xmlns="http://www.w3.org/2000/svg">
<path d="M1.44445 2.8889C2.2422 2.8889 2.8889 2.2422 2.8889 1.44445C2.8889 0.646703 2.2422 0 1.44445 0C0.646703 0 0 0.646703 0 1.44445C0 2.2422 0.646703 2.8889 1.44445 2.8889Z" fill="black"/>
<path d="M1.44445 10.1112C2.2422 10.1112 2.8889 9.46449 2.8889 8.66674C2.8889 7.86899 2.2422 7.22229 1.44445 7.22229C0.646703 7.22229 0 7.86899 0 8.66674C0 9.46449 0.646703 10.1112 1.44445 10.1112Z" fill="black"/>
<path d="M1.44445 17.3334C2.2422 17.3334 2.8889 16.6867 2.8889 15.889C2.8889 15.0912 2.2422 14.4445 1.44445 14.4445C0.646703 14.4445 0 15.0912 0 15.889C0 16.6867 0.646703 17.3334 1.44445 17.3334Z" fill="black"/>
<path d="M24.6419 7.22229H7.13513C6.38524 7.22229 5.77734 7.83019 5.77734 8.58007V8.75341C5.77734 9.50329 6.38524 10.1112 7.13513 10.1112H24.6419C25.3918 10.1112 25.9997 9.50329 25.9997 8.75341V8.58007C25.9997 7.83019 25.3918 7.22229 24.6419 7.22229Z" fill="black"/>
<path d="M24.6419 14.4445H7.13513C6.38524 14.4445 5.77734 15.0524 5.77734 15.8023V15.9756C5.77734 16.7255 6.38524 17.3334 7.13513 17.3334H24.6419C25.3918 17.3334 25.9997 16.7255 25.9997 15.9756V15.8023C25.9997 15.0524 25.3918 14.4445 24.6419 14.4445Z" fill="black"/>
<path d="M24.6419 0H7.13513C6.38524 0 5.77734 0.607901 5.77734 1.35778V1.53112C5.77734 2.281 6.38524 2.8889 7.13513 2.8889H24.6419C25.3918 2.8889 25.9997 2.281 25.9997 1.53112V1.35778C25.9997 0.607901 25.3918 0 24.6419 0Z" fill="black"/>
</svg>
