<svg width="16" height="16" viewBox="0 0 16 16" fill="none" xmlns="http://www.w3.org/2000/svg">
<g clip-path="url(#clip0_1208_299)">
<path d="M13.9597 5.18935C13.8128 4.95467 13.4993 4.90051 13.2808 5.06301L11.7596 6.20423C11.5692 6.34751 11.5161 6.6112 11.6369 6.81673C12.0228 7.47363 12.2188 8.17676 12.2188 8.90688C12.2188 11.2333 10.3263 13.1875 8 13.1875C5.67366 13.1875 3.78125 11.2333 3.78125 8.90688C3.78125 6.73892 5.42462 4.94813 7.53125 4.71423V6.09438C7.53125 6.48295 7.97706 6.69929 8.28106 6.46929L12.0311 3.65679C12.2812 3.46963 12.2809 3.09385 12.0311 2.90698L8.28106 0.0944781C7.97597 -0.136553 7.53125 0.0820719 7.53125 0.469384V1.8912C3.87188 2.13335 0.96875 5.18754 0.96875 8.90688C0.96875 12.7842 4.12275 16 8 16C11.8772 16 15.0312 12.7842 15.0312 8.90688C15.0312 7.59495 14.6605 6.30954 13.9597 5.18935Z" fill="black"/>
</g>
<defs>
<clipPath id="clip0_1208_299">
<rect width="16" height="16" fill="white"/>
</clipPath>
</defs>
</svg>
