<svg width="29" height="26" viewBox="0 0 29 26" fill="none" xmlns="http://www.w3.org/2000/svg">
<g clip-path="url(#clip0_1208_262)">
<path d="M23.29 11.0707C23.5566 11.3369 23.9906 11.3369 24.2572 11.0707L27.9822 7.34576C28.2488 7.07915 28.2488 6.64513 27.9822 6.37852L23.49 1.88635C22.2738 0.669661 20.6569 0 18.9368 0H9.24509C7.52531 0 5.9085 0.669661 4.69223 1.88593L0.20048 6.3781C0.0711515 6.50743 0 6.67903 0 6.86193C0 7.04483 0.0711515 7.21643 0.20048 7.34576L3.92547 11.0707C4.19208 11.3374 4.62568 11.3374 4.89271 11.0707L6.26509 9.69836V14.8305C6.26509 14.8305 6.26509 14.8309 6.26509 14.8313V14.9439H6.04118C3.74508 14.9439 1.87672 16.8118 1.87672 19.1084V21.4388L0.513965 22.6425C0.083289 23.0229 -0.0950081 23.6051 0.0493875 24.1614C0.193783 24.7176 0.631992 25.1399 1.19325 25.2634C3.41987 25.7522 5.70467 26.0004 7.98403 26.0004C10.2634 26.0004 12.5482 25.7526 14.7748 25.2634C15.3327 25.1407 15.7688 24.7226 15.9162 24.1714H17.227L17.1538 25.0072C17.1354 25.2173 17.2065 25.4274 17.3492 25.5827C17.492 25.7384 17.6945 25.8276 17.9055 25.8276H26.9522C27.1631 25.8276 27.3661 25.7384 27.5084 25.5827C27.6511 25.427 27.7223 25.2173 27.7039 25.0072L26.8839 15.6324C26.8496 15.2398 26.5261 14.9435 26.1323 14.9435H25.3659C25.2554 13.4196 23.981 12.2129 22.429 12.2129C22.2545 12.2129 22.0837 12.2293 21.9176 12.2581V9.69753L23.29 11.0703V11.0707ZM20.8478 12.6754C20.0852 13.1626 19.5612 13.9909 19.4922 14.9435H18.7258C18.3315 14.9435 18.0084 15.2398 17.9741 15.6324L17.7745 17.9126C17.7619 18.0549 17.8059 18.1934 17.8975 18.3031C17.9892 18.4123 18.1181 18.4797 18.2604 18.4918C18.4027 18.5044 18.5412 18.4613 18.6505 18.3696C18.7601 18.2776 18.8275 18.1486 18.8401 18.0059L19.0146 16.0128H25.8443L26.6094 24.7578H18.2495L18.666 19.9994C18.6915 19.7056 18.4734 19.4457 18.18 19.4202C18.0377 19.4072 17.8988 19.4511 17.7895 19.5432C17.6803 19.6349 17.6129 19.7638 17.6008 19.9061L17.3212 23.1012H15.8086C15.7228 22.93 15.6048 22.7735 15.4554 22.6412L14.0922 21.4375V19.1071C14.0922 16.811 12.2242 14.9426 9.92772 14.9426H9.7038V14.8301C9.7038 14.1395 9.14171 13.5774 8.45112 13.5774H7.51778C7.45542 13.5774 7.39431 13.582 7.33488 13.5908V8.7667C7.33488 8.7667 7.33488 8.7667 7.33488 8.76628V4.26365C7.33488 3.969 7.09506 3.72875 6.79999 3.72875C6.50492 3.72875 6.26509 3.96858 6.26509 4.26365V8.20209C6.23036 8.22595 6.19729 8.25273 6.16674 8.28329L4.40888 10.0411L1.22925 6.86151L5.44853 2.64181C6.37182 1.71852 7.57261 1.17274 8.86254 1.08276C9.13752 3.72499 11.3775 5.79173 14.0909 5.79173C16.8043 5.79173 19.0443 3.72499 19.3193 1.08276C20.6092 1.17316 21.81 1.71852 22.7333 2.64181L26.953 6.86151L23.773 10.0416L22.0151 8.2837C21.9845 8.25315 21.9515 8.22636 21.9167 8.20251V4.26407C21.9167 3.96941 21.6769 3.72917 21.3818 3.72917C21.0868 3.72917 20.847 3.969 20.847 4.26407V8.76712V12.675L20.8478 12.6754ZM20.5657 14.9435C20.5988 14.6543 20.698 14.3847 20.8478 14.1508V14.9435H20.5657ZM21.9172 14.9435V13.3539C22.08 13.3078 22.2516 13.2823 22.4286 13.2823C23.3904 13.2823 24.1848 14.0097 24.2919 14.9435H21.9167H21.9172ZM7.51736 14.6476H8.4507C8.55157 14.6476 8.63402 14.7296 8.63402 14.8309V14.9435H7.33446V14.8305C7.33446 14.7296 7.41649 14.6476 7.51736 14.6476ZM11.9635 16.7804C12.6114 17.348 13.0216 18.1809 13.0216 19.1079V21.222L12.621 21.2843V19.4243C12.621 18.4617 12.39 17.5426 11.9635 16.7809V16.7804ZM4.00415 16.7804C3.57766 17.5422 3.34663 18.4613 3.34663 19.4239V21.2839L2.94609 21.2216V19.1075C2.94609 18.1805 3.35626 17.348 4.00415 16.78V16.7804ZM3.48182 22.3876C4.04768 22.4759 4.62401 22.5483 5.19531 22.6031C5.33761 22.617 5.47657 22.5743 5.58664 22.4834C5.69672 22.3926 5.76494 22.2641 5.77875 22.1218C5.79257 21.9795 5.74987 21.8406 5.65905 21.7305C5.56823 21.6204 5.43974 21.5522 5.29744 21.5384C5.00404 21.5103 4.70939 21.4769 4.41558 21.4392V19.4235C4.41558 17.5426 5.47866 16.0124 6.78576 16.0124H9.18105C10.4881 16.0124 11.5512 17.5426 11.5512 19.4235V21.4392C10.1073 21.6233 8.64448 21.6966 7.19258 21.6556C7.04944 21.6514 6.91425 21.7029 6.81045 21.8008C6.70623 21.8992 6.6468 22.0318 6.64262 22.175C6.63425 22.4696 6.86737 22.7162 7.16202 22.7245C7.43282 22.7321 7.70738 22.7358 7.97859 22.7358C9.48491 22.7358 11.0009 22.6186 12.485 22.3872L13.3899 22.2461L14.7455 23.4432C14.8748 23.5574 14.9263 23.7252 14.8828 23.8922C14.8397 24.0592 14.7129 24.181 14.5446 24.2183C12.3933 24.6908 10.186 24.9302 7.98319 24.9302C5.78043 24.9302 3.57306 24.6908 1.42177 24.2183C1.2531 24.1815 1.1267 24.0592 1.08359 23.8922C1.04049 23.7252 1.09155 23.5574 1.22088 23.4432L2.57652 22.2461L3.4814 22.3872L3.48182 22.3876ZM10.3421 1.5871C10.4065 1.81729 10.6183 1.97759 10.8569 1.97759C10.9054 1.97759 10.954 1.9709 11.0013 1.9575C11.285 1.87798 11.4516 1.58249 11.3721 1.2983C11.3507 1.22255 11.3332 1.14596 11.3185 1.06895H16.8637C16.613 2.37102 15.4654 3.35793 14.0913 3.35793C13.3878 3.35793 12.7139 3.0976 12.1937 2.62549C11.9752 2.42752 11.6366 2.44342 11.4382 2.6619C11.3424 2.76779 11.293 2.90465 11.3001 3.04696C11.3068 3.18968 11.3692 3.3211 11.4746 3.41694C12.192 4.06819 13.1212 4.42729 14.0909 4.42729C16.0564 4.42729 17.6857 2.96325 17.9473 1.06895H18.2445C17.9812 3.12648 16.2188 4.72195 14.0909 4.72195C11.9631 4.72195 10.2006 3.12648 9.93735 1.06895H10.2345C10.2584 1.24389 10.2944 1.41675 10.3421 1.58668V1.5871Z" fill="currentColor"/>
<path d="M17.3261 12.6545L17.2353 12.58L17.0699 12.5854C17.0017 12.6495 16.9347 12.7131 16.8682 12.7759C16.7284 12.909 16.5961 13.0345 16.4576 13.1555C15.9428 13.6033 15.3535 13.8344 14.706 13.8423C13.9786 13.8536 13.4642 13.5502 13.1302 12.9198C12.9356 12.5524 12.8168 12.1271 12.7569 11.5814C12.6941 11.0101 12.6945 10.4116 12.7577 9.803C12.8176 9.21872 12.9365 8.75372 13.1315 8.33979C13.301 7.97984 13.5283 7.74002 13.8254 7.60735C14.2289 7.42737 14.6596 7.40812 15.1053 7.55042C15.5381 7.6877 15.9047 7.96771 16.2592 8.43228C16.5187 8.77214 16.7188 9.15343 16.8636 9.44724C16.8741 9.46858 16.9306 9.57447 17.0323 9.58703C17.0938 9.59624 17.1532 9.59456 17.211 9.59331C17.2319 9.59289 17.2528 9.59205 17.2746 9.59205L17.4002 9.46649V6.98624L17.2746 6.86067C17.252 6.86067 17.2307 6.86067 17.2093 6.86109C17.1645 6.86151 17.1227 6.86193 17.0821 6.85984C16.9243 6.85105 16.864 6.94815 16.8418 7.03144C16.8268 7.08878 16.7916 7.14737 16.7631 7.19216C16.6719 7.33278 16.5794 7.36669 16.422 7.31688C16.2186 7.25284 16.0186 7.18462 15.8273 7.11389C15.0769 6.83724 14.3264 6.77529 13.5977 6.92973C12.268 7.21141 11.3406 7.99115 10.8404 9.24802C10.5709 9.92605 10.5039 10.6719 10.6357 11.5278C10.7877 12.5143 11.2849 13.3133 12.114 13.9026C12.7439 14.35 13.4734 14.5819 14.344 14.612C14.3913 14.6137 14.4386 14.6145 14.4855 14.6145C15.1493 14.6145 15.7574 14.4517 16.2948 14.1303C16.7904 13.8331 17.1863 13.425 17.5412 13.0274C17.5713 12.9931 17.5734 12.9554 17.5743 12.9395L17.5299 12.8219C17.4634 12.7675 17.3951 12.7114 17.3265 12.6549L17.3261 12.6545Z" fill="currentColor"/>
<path d="M7.02132 20.6277C7.32937 20.8461 7.68513 20.9596 8.1091 20.9742C8.13254 20.9751 8.15556 20.9755 8.17816 20.9755C8.50337 20.9755 8.80137 20.8955 9.06546 20.7377C9.30654 20.5929 9.49781 20.3962 9.66983 20.2037C9.68741 20.1832 9.69746 20.1585 9.70039 20.13L9.65602 20.0124L9.51748 19.8986L9.35216 19.904C9.31993 19.9341 9.28813 19.9643 9.25674 19.9944C9.19144 20.0568 9.1295 20.1154 9.06546 20.1715C8.8315 20.3749 8.57536 20.4753 8.28196 20.4791C7.96638 20.4841 7.74288 20.3523 7.59849 20.0794C7.51059 19.9136 7.45702 19.7207 7.42982 19.4721C7.40094 19.2076 7.40094 18.9301 7.43024 18.6471C7.45786 18.3793 7.51185 18.1671 7.60058 17.9787C7.67466 17.8218 7.768 17.7222 7.89481 17.6657C8.06976 17.5878 8.25685 17.5795 8.45147 17.6414C8.6419 17.7017 8.8043 17.8268 8.96292 18.0344C9.08095 18.1893 9.1701 18.3579 9.24083 18.5019C9.2626 18.5467 9.30863 18.5969 9.37016 18.6045C9.4049 18.6095 9.43712 18.6086 9.466 18.6082C9.47521 18.6082 9.48484 18.6078 9.49405 18.6078L9.61961 18.4822V17.3124L9.49405 17.1869H9.46224C9.4434 17.1873 9.42541 17.1877 9.40699 17.1869C9.31701 17.1818 9.24878 17.2304 9.22576 17.3174C9.22116 17.3354 9.20693 17.3585 9.19688 17.3739C9.16968 17.4158 9.15796 17.4204 9.1115 17.4053C9.01649 17.3756 8.92316 17.3438 8.83401 17.3108C8.46821 17.176 8.10199 17.1458 7.74581 17.2212C7.09582 17.3589 6.64213 17.7402 6.3977 18.355C6.26628 18.6861 6.23322 19.0489 6.29725 19.4645C6.37175 19.948 6.61534 20.3397 7.02174 20.6285L7.02132 20.6277Z" fill="currentColor"/>
<path d="M9.70216 20.1237C9.70216 20.1262 9.70117 20.1287 9.70117 20.1311C9.70167 20.1282 9.70216 20.1257 9.70216 20.1237Z" fill="currentColor"/>
<path d="M24.5948 21.7238C24.5948 21.7238 24.5943 21.7279 24.5938 21.7299C24.5938 21.7299 24.5943 21.7259 24.5943 21.7238H24.5948Z" fill="currentColor"/>
<path d="M21.2162 22.3428C21.605 22.6191 22.0549 22.7622 22.5911 22.7806C22.6204 22.7815 22.6497 22.7823 22.6785 22.7823C23.0887 22.7823 23.4646 22.6814 23.7973 22.4826C24.1024 22.2997 24.3447 22.0499 24.562 21.8067C24.5808 21.7853 24.5913 21.7594 24.5938 21.7288L24.5494 21.6112L24.3715 21.4656L24.2062 21.471C24.1648 21.5095 24.1242 21.548 24.0844 21.5861C24.0003 21.6661 23.9208 21.7418 23.8375 21.8142C23.5315 22.0804 23.1954 22.2123 22.8108 22.2169C22.3935 22.2219 22.0951 22.0486 21.903 21.6857C21.7883 21.4693 21.7184 21.2178 21.6828 20.8947C21.6452 20.5527 21.6456 20.1949 21.6833 19.8304C21.7188 19.483 21.7892 19.2071 21.9047 18.9623C22.0018 18.756 22.1311 18.6191 22.2994 18.5438C22.5316 18.4404 22.7803 18.4291 23.0377 18.5111C23.2892 18.5906 23.5027 18.7547 23.7107 19.0272C23.8643 19.2281 23.9789 19.4461 24.0706 19.6324C24.0945 19.6814 24.1443 19.7362 24.2096 19.7441C24.251 19.7504 24.2891 19.7492 24.3259 19.7483C24.3381 19.7483 24.3506 19.7475 24.3632 19.7475L24.4887 19.6219V18.1227L24.3632 17.9972C24.3494 17.9972 24.3364 17.9972 24.3234 17.9972C24.2962 17.9972 24.2728 17.9976 24.2497 17.9963C24.1518 17.9905 24.079 18.0419 24.0539 18.1369C24.0463 18.165 24.0267 18.1976 24.0124 18.2198C23.9693 18.2864 23.9371 18.2985 23.863 18.2746C23.7404 18.2361 23.6203 18.1951 23.5056 18.1529C23.0431 17.9825 22.5806 17.9444 22.1307 18.0394C21.3099 18.2131 20.7374 18.6949 20.4285 19.4708C20.2623 19.8889 20.2209 20.3481 20.3017 20.8746C20.3954 21.4844 20.7031 21.9783 21.2153 22.3428H21.2162Z" fill="currentColor"/>
</g>
<defs>
<clipPath id="clip0_1208_262">
<rect width="28.1818" height="26" fill="white"/>
</clipPath>
</defs>
</svg>
