<svg width="24" height="25" viewBox="0 0 24 25" fill="none" xmlns="http://www.w3.org/2000/svg">
<g clip-path="url(#clip0_1208_270)">
<path d="M1.94813 10.2662V9.98991C1.94813 5.55616 5.55324 1.94915 9.98466 1.94915C14.1483 1.94915 17.5821 5.13329 17.9821 9.1957L19.935 10.9782C19.9576 10.7377 19.9697 10.5001 19.9697 10.2662V9.98991C19.9697 4.48163 15.4904 0 9.98466 0C4.4789 0 0 4.48163 0 9.98991V10.2662C0 13.052 1.59635 16.2986 4.74484 19.9151C7.02721 22.5371 9.27781 24.3653 9.37242 24.4417L9.98466 24.9366V22.4034C8.01059 20.6728 1.94813 14.9737 1.94813 10.2662Z" fill="currentColor"/>
<path d="M9.98463 14.1324C7.7019 14.1324 5.84473 12.2742 5.84473 9.99029C5.84473 7.70635 7.7019 5.84821 9.98463 5.84821C12.2674 5.84821 14.1245 7.70635 14.1245 9.99029C14.1245 12.2742 12.2674 14.1324 9.98463 14.1324ZM9.98463 7.79736C8.77623 7.79736 7.79285 8.78125 7.79285 9.99029C7.79285 11.1993 8.77623 12.1832 9.98463 12.1832C11.193 12.1832 12.1764 11.1993 12.1764 9.99029C12.1764 8.78125 11.193 7.79736 9.98463 7.79736Z" fill="currentColor"/>
<path d="M17.7901 12.5099C14.3604 12.5099 11.5801 15.2917 11.5801 18.7233C11.5801 22.1548 14.3604 24.9366 17.7901 24.9366C21.2199 24.9366 24.0002 22.1548 24.0002 18.7233C24.0002 15.2917 21.2199 12.5099 17.7901 12.5099ZM20.8772 20.7506C20.5445 21.1234 20.196 21.4787 19.7638 21.7378C19.233 22.0554 18.6562 22.1837 18.0414 22.1629C17.3225 22.138 16.6548 21.9549 16.063 21.5346C15.3364 21.0178 14.8933 20.3204 14.7571 19.4363C14.6511 18.7463 14.6782 18.0625 14.9379 17.409C15.3821 16.292 16.2033 15.6049 17.3784 15.356C18.0506 15.2135 18.7114 15.2825 19.3554 15.5201C19.537 15.5874 19.7207 15.6499 19.9052 15.708C20.0999 15.7697 20.2369 15.7186 20.3483 15.5468C20.3845 15.4909 20.4184 15.4302 20.4352 15.3662C20.4517 15.3045 20.4824 15.2917 20.5379 15.2946C20.5967 15.2979 20.6551 15.2953 20.7202 15.2953V17.5665C20.6482 17.5665 20.5806 17.5731 20.5156 17.5632C20.4897 17.5599 20.4608 17.5259 20.4477 17.4985C20.2844 17.167 20.1076 16.8439 19.8825 16.5497C19.5896 16.1656 19.24 15.8512 18.7702 15.7021C18.3476 15.5673 17.9264 15.5768 17.5176 15.7588C17.1896 15.9053 16.9755 16.1663 16.8254 16.4854C16.6197 16.9214 16.5214 17.3863 16.4729 17.8625C16.4155 18.4133 16.4119 18.9645 16.4721 19.5153C16.5207 19.9568 16.6168 20.3859 16.8268 20.7821C17.1552 21.4023 17.6747 21.6969 18.3717 21.6881C19.0131 21.6801 19.5688 21.4487 20.0484 21.031C20.2387 20.865 20.4184 20.6867 20.6117 20.5061C20.7026 20.5807 20.7932 20.6556 20.8809 20.7272C20.8787 20.7408 20.8802 20.7473 20.8776 20.7506H20.8772Z" fill="currentColor"/>
</g>
<defs>
<clipPath id="clip0_1208_270">
<rect width="24" height="24.9366" fill="white"/>
</clipPath>
</defs>
</svg>
