<svg width="16" height="16" viewBox="0 0 16 16" fill="none" xmlns="http://www.w3.org/2000/svg">
<path d="M7.99968 1.33331C6.68114 1.33331 5.3922 1.72431 4.29588 2.45685C3.19955 3.18939 2.34506 4.23058 1.84048 5.44876C1.3359 6.66693 1.20387 8.00737 1.46111 9.30058C1.71834 10.5938 2.35328 11.7817 3.28563 12.714C4.21798 13.6464 5.40587 14.2813 6.69908 14.5385C7.99228 14.7958 9.33273 14.6638 10.5509 14.1592C11.7691 13.6546 12.8103 12.8001 13.5428 11.7038C14.2754 10.6075 14.6663 9.31852 14.6663 7.99998C14.6663 7.1245 14.4939 6.25759 14.1589 5.44876C13.8238 4.63992 13.3328 3.90499 12.7137 3.28593C12.0947 2.66688 11.3597 2.17581 10.5509 1.84078C9.74206 1.50575 8.87516 1.33331 7.99968 1.33331ZM7.99968 13.3333C6.94484 13.3333 5.9137 13.0205 5.03664 12.4345C4.15957 11.8484 3.47599 11.0155 3.07232 10.041C2.66865 9.06642 2.56304 7.99406 2.76882 6.9595C2.97461 5.92493 3.48256 4.97462 4.22844 4.22874C4.97432 3.48286 5.92463 2.97491 6.9592 2.76912C7.99376 2.56334 9.06612 2.66895 10.0407 3.07262C11.0152 3.47629 11.8481 4.15988 12.4342 5.03694C13.0202 5.914 13.333 6.94515 13.333 7.99998C13.333 9.41447 12.7711 10.771 11.7709 11.7712C10.7707 12.7714 9.41417 13.3333 7.99968 13.3333Z" fill="currentColor"/>
<path d="M8.00033 3.99998C7.38149 3.99998 6.78799 4.24582 6.35041 4.6834C5.91282 5.12099 5.66699 5.71448 5.66699 6.33332C5.66699 6.51013 5.73723 6.6797 5.86225 6.80472C5.98728 6.92975 6.15685 6.99998 6.33366 6.99998C6.51047 6.99998 6.68004 6.92975 6.80506 6.80472C6.93009 6.6797 7.00033 6.51013 7.00033 6.33332C7.00033 6.13554 7.05897 5.9422 7.16886 5.77775C7.27874 5.6133 7.43492 5.48513 7.61764 5.40944C7.80037 5.33375 8.00143 5.31395 8.19542 5.35253C8.3894 5.39112 8.56758 5.48636 8.70743 5.62621C8.84728 5.76606 8.94253 5.94425 8.98111 6.13823C9.0197 6.33221 8.99989 6.53327 8.9242 6.716C8.84852 6.89873 8.72034 7.05491 8.5559 7.16479C8.39145 7.27467 8.19811 7.33332 8.00033 7.33332C7.82351 7.33332 7.65395 7.40356 7.52892 7.52858C7.4039 7.6536 7.33366 7.82317 7.33366 7.99998V9.33332C7.33366 9.51013 7.4039 9.6797 7.52892 9.80472C7.65395 9.92975 7.82351 9.99998 8.00033 9.99998C8.17714 9.99998 8.34671 9.92975 8.47173 9.80472C8.59675 9.6797 8.66699 9.51013 8.66699 9.33332V8.55998C9.20573 8.40265 9.66944 8.05589 9.97265 7.58361C10.2759 7.11133 10.3981 6.54536 10.317 5.99003C10.2358 5.43469 9.95658 4.92742 9.53085 4.56171C9.10513 4.196 8.56155 3.9965 8.00033 3.99998Z" fill="currentColor"/>
<path d="M7.99967 12C8.36786 12 8.66634 11.7015 8.66634 11.3334C8.66634 10.9652 8.36786 10.6667 7.99967 10.6667C7.63148 10.6667 7.33301 10.9652 7.33301 11.3334C7.33301 11.7015 7.63148 12 7.99967 12Z" fill="currentColor"/>
</svg>
