<svg width="36" height="32" viewBox="0 0 36 32" fill="none" xmlns="http://www.w3.org/2000/svg">
<path d="M18 0C13.6506 0 10.125 3.52563 10.125 7.875C10.125 11.3912 15.2719 17.8 17.2437 20.1262C17.6431 20.5975 18.3575 20.5975 18.7563 20.1262C20.7281 17.8 25.875 11.3912 25.875 7.875C25.875 3.52563 22.3494 0 18 0ZM18 10.5C16.55 10.5 15.375 9.325 15.375 7.875C15.375 6.425 16.55 5.25 18 5.25C19.45 5.25 20.625 6.425 20.625 7.875C20.625 9.325 19.45 10.5 18 10.5ZM1.2575 13.4969C0.886361 13.6453 0.568207 13.9016 0.344068 14.2325C0.11993 14.5635 8.8888e-05 14.954 0 15.3538L0 30.9988C0 31.7063 0.714375 32.19 1.37125 31.9275L10 28V13.4325C9.4475 12.4337 8.99562 11.4613 8.67188 10.5312L1.2575 13.4969ZM18 22.4794C17.1206 22.4794 16.2888 22.0931 15.7181 21.4194C14.4894 19.9694 13.1825 18.3181 12 16.6244V27.9994L24 31.9994V16.625C22.8175 18.3181 21.5113 19.97 20.2819 21.42C19.7113 22.0931 18.8794 22.4794 18 22.4794ZM34.6287 10.0725L26 14V32L34.7425 28.5031C35.1137 28.3548 35.4319 28.0985 35.656 27.7675C35.8802 27.4366 36 27.046 36 26.6462V11.0013C36 10.2938 35.2856 9.81 34.6287 10.0725Z" fill="black"/>
</svg>
