<svg width="131" height="40" viewBox="0 0 131 40" fill="none" xmlns="http://www.w3.org/2000/svg">
<g clip-path="url(#clip0_65_844)">
<path d="M72.0279 0.535464C72.1452 0.527648 72.2156 0.519832 72.2899 0.519832C75.8051 0.519832 79.3241 0.508107 82.8393 0.535464C84.4151 0.547189 85.9752 0.746505 87.4611 1.32882C88.5363 1.7509 89.4865 2.34885 90.1121 3.35715C91.3946 5.42457 90.8394 8.01959 88.8374 9.40307C88.0554 9.9424 87.2069 10.3332 86.2802 10.5482C86.1981 10.5677 86.0925 10.6498 86.0691 10.7279C86.0221 10.8882 86.159 10.9116 86.2841 10.939C87.6331 11.2243 88.8726 11.7362 89.9752 12.5921C92.4308 14.4993 92.6419 18.5403 89.9166 20.6703C88.5833 21.7138 87.07 22.3078 85.42 22.5462C84.4386 22.6869 83.4415 22.7572 82.4483 22.7651C79.0856 22.7924 75.7269 22.7729 72.3642 22.7807C72.1022 22.7807 72.0162 22.7182 72.0279 22.4485C72.0475 21.9404 72.0318 21.9444 72.5558 21.9014C72.8021 21.8818 73.0445 21.8466 73.287 21.7998C74.327 21.5848 74.8745 20.9439 74.9253 19.873C74.9331 19.7441 74.9331 19.619 74.9331 19.49C74.9331 14.2609 74.937 9.02789 74.9253 3.79487C74.9253 3.41968 74.8666 3.02887 74.765 2.66541C74.6164 2.12608 74.2332 1.76653 73.6936 1.62584C73.2635 1.5125 72.8177 1.44997 72.3759 1.40308C72.1217 1.37572 71.9849 1.3171 72.0279 1.0318C72.0514 0.88329 72.0279 0.726964 72.0279 0.54328M80.1883 15.8633C80.1883 17.0943 80.1883 18.3254 80.1883 19.5604C80.1883 19.8144 80.2078 20.0684 80.2391 20.3225C80.3408 21.151 80.8217 21.6317 81.6585 21.6786C82.1277 21.706 82.6086 21.6825 83.0778 21.62C84.4777 21.4285 85.4161 20.6508 85.8384 19.2946C86.331 17.7118 86.3349 16.1095 85.8931 14.5189C85.463 12.9556 84.4229 11.9942 82.8198 11.7206C82.0417 11.5877 81.244 11.576 80.4503 11.5018C80.2235 11.4783 80.1805 11.576 80.1805 11.7831C80.1883 13.1432 80.1844 14.5032 80.1844 15.8633M80.1844 10.4778C80.2547 10.4895 80.2899 10.5052 80.3251 10.5013C81.1306 10.4192 81.9478 10.3879 82.7455 10.2433C83.942 10.0284 84.7592 9.32491 85.0642 8.11729C85.4552 6.56966 85.4395 5.02594 84.943 3.50176C84.6692 2.65369 84.1961 1.95803 83.2851 1.71573C82.8159 1.59067 82.3115 1.52814 81.8266 1.53595C80.5676 1.55159 80.1805 1.96976 80.1805 3.22428C80.1805 5.54181 80.1805 7.86326 80.1805 10.1808V10.4739L80.1844 10.4778Z" fill="white"/>
<path d="M67.4062 21.999V22.7493H67.0699C64.411 22.7493 61.7522 22.7493 59.0933 22.7493C58.6085 22.7493 58.6593 22.7845 58.6554 22.3312C58.6554 22.2569 58.6475 22.1865 58.6436 22.0615C58.5302 22.1436 58.4481 22.2061 58.366 22.2686C57.3611 23.019 56.2468 23.3551 54.9916 23.1636C54.0493 23.0229 53.3963 22.5226 53.103 21.5964C53.0405 21.3971 52.9857 21.1939 52.9232 20.9828C52.6182 21.2369 52.3288 21.5026 52.016 21.7293C50.7061 22.6907 49.2516 23.2691 47.6054 23.1988C46.4011 23.148 45.3571 22.679 44.6416 21.6707C44.0433 20.8265 44.0003 19.8417 44.188 18.8568C44.4343 17.5554 45.2867 16.7034 46.3777 16.0625C47.6758 15.3004 49.0795 14.7689 50.4989 14.2843C51.2145 14.0419 51.9417 13.8192 52.669 13.6042C52.8567 13.5495 52.9349 13.4635 52.9271 13.2603C52.9036 12.2833 52.9036 11.3062 52.8723 10.3331C52.845 9.36779 52.2467 8.63306 51.3005 8.40247C50.5732 8.2227 49.8303 8.17971 49.1108 8.41811C48.8332 8.5119 48.5634 8.67605 48.3444 8.87145C48.0316 9.14893 48.0277 9.57492 48.2819 9.91102C48.3757 10.0322 48.4813 10.1455 48.579 10.2706C49.0795 10.9076 49.2047 11.6111 48.8919 12.3536C48.5908 13.0727 47.973 13.4166 47.2301 13.4596C46.8391 13.4831 46.4168 13.4362 46.0492 13.3072C45.0287 12.9555 44.5673 12.0292 44.7315 10.8568C44.8996 9.66481 45.5878 8.85191 46.5849 8.25787C47.6445 7.62475 48.8019 7.32382 50.018 7.24175C51.7071 7.12451 53.3533 7.29647 54.933 7.96867C56.3641 8.57834 57.1226 9.67263 57.3181 11.1851C57.3807 11.6814 57.4081 12.1856 57.412 12.6858C57.4198 15.1597 57.412 17.6335 57.4198 20.1113C57.4198 20.3184 57.4393 20.5373 57.5175 20.7249C57.7013 21.1587 58.1041 21.2486 58.4833 20.9633C58.6006 20.8773 58.7062 20.7796 58.8352 20.6663C58.9799 20.8656 59.1246 21.0454 59.238 21.2369C59.2693 21.2916 59.2497 21.4088 59.2067 21.4635C59.1011 21.6081 58.9721 21.7332 58.8391 21.8778C59.6524 21.9403 60.2507 21.4557 60.3289 20.6624C60.3797 20.1348 60.3993 19.6072 60.3993 19.0757C60.4032 16.1797 60.4032 13.2838 60.3993 10.3917C60.3993 10.083 60.3758 9.77033 60.3289 9.46549C60.2585 9.02387 60.0004 8.72294 59.5664 8.58225C59.4022 8.52753 59.2341 8.48455 59.0659 8.44546C58.6515 8.35167 58.6515 8.35558 58.6515 7.92959C58.6515 7.83188 58.6515 7.73027 58.6515 7.60912H64.8842V10.0556C64.8842 10.0556 64.9233 10.0752 64.9428 10.0869C65.0054 10.0205 65.064 9.95011 65.1266 9.88367C65.7248 9.27009 66.2879 8.61352 66.933 8.05856C67.7933 7.31601 68.8412 7.03853 69.9556 7.27302C71.8285 7.66774 72.2977 9.23491 71.8676 10.595C71.4062 12.0527 69.6271 12.4552 68.4854 11.3766C68.1882 11.0952 67.9458 10.7591 67.6681 10.4543C67.1677 9.91102 66.8157 9.88367 66.2253 10.3409C65.5489 10.8646 65.2048 11.5681 65.107 12.4005C65.0718 12.7093 65.0562 13.018 65.0562 13.3307C65.0523 15.3316 65.0445 17.3326 65.0601 19.3297C65.0601 19.8182 65.1344 20.3106 65.2087 20.7952C65.2791 21.2486 65.5723 21.5534 66.0142 21.6746C66.4599 21.7957 66.9174 21.8856 67.3983 21.995M52.8723 14.6907C52.0669 14.8079 50.8665 15.3903 50.1666 15.996C49.0561 16.9574 48.6103 18.3956 49.0326 19.6697C49.2829 20.4279 49.8889 20.8851 50.6162 20.8539C51.5859 20.8148 52.2428 20.2364 52.8254 19.5446C52.8567 19.5056 52.8684 19.443 52.8684 19.3922C52.8684 17.8329 52.8684 16.2735 52.8684 14.6907" fill="white"/>
<path d="M44.1489 9.64546H41.4979C41.6113 9.77442 41.6738 9.84477 41.7364 9.91512C43.187 11.5956 43.187 14.3861 41.7168 15.9571C40.9583 16.7661 39.9808 17.1843 38.9289 17.4461C37.7481 17.7393 36.5477 17.8174 35.3395 17.7353C34.5809 17.6845 34.0257 18.0206 33.5995 18.5834C33.013 19.3611 33.447 20.3265 34.4167 20.4163C35.144 20.4828 35.8752 20.4828 36.6063 20.5101C37.7559 20.5531 38.9094 20.5531 40.055 20.6391C41.0404 20.7134 41.9749 21.0104 42.7921 21.5966C43.8322 22.347 44.2154 23.4061 44.188 24.6489C44.1528 26.599 43.1245 27.8653 41.4079 28.6469C40.2975 29.155 39.1127 29.3856 37.9123 29.4872C36.1567 29.6357 34.405 29.624 32.6728 29.28C31.7735 29.1003 30.8976 28.8462 30.1469 28.2874C28.5906 27.1266 29.1811 25.2742 30.4479 24.5707C30.792 24.3792 31.2026 24.301 31.578 24.1643C31.6679 24.133 31.75 24.0666 31.8321 24.0158C31.7617 23.9454 31.6992 23.8594 31.6171 23.8125C31.4646 23.7265 31.3042 23.664 31.1439 23.5937C29.3218 22.773 29.3648 20.6977 30.2094 19.6152C30.8663 18.7749 31.7539 18.2317 32.7002 17.7744C32.8214 17.7158 32.9543 17.6767 33.0794 17.6142C33.142 17.579 33.2358 17.5048 33.2319 17.4618C33.2202 17.3914 33.1498 17.3133 33.0833 17.2703C32.575 16.9654 32.0315 16.7153 31.5584 16.3636C30.0374 15.2419 29.3609 13.7138 29.5486 11.834C29.705 10.2356 30.577 9.07486 31.9103 8.24243C33.0247 7.54287 34.2681 7.28102 35.5623 7.20676C36.9856 7.12469 38.3698 7.31228 39.7031 7.82816C39.8165 7.87115 39.9534 7.87506 40.0785 7.87506C41.3024 7.87506 42.5262 7.87506 43.7501 7.87506C44.1997 7.87506 44.1528 7.82816 44.1567 8.29323C44.1567 8.73095 44.1567 9.16475 44.1567 9.63373M36.4499 24.5082V24.4847C35.6093 24.4847 34.7686 24.5277 33.9318 24.4691C33.3492 24.43 32.9543 24.6489 32.618 25.071C32.5789 25.1218 32.5359 25.1687 32.4968 25.2195C31.8595 26.0871 32.0081 27.1384 32.9113 27.7207C33.3179 27.9825 33.7911 28.1779 34.2642 28.2835C35.8908 28.6352 37.533 28.557 39.1596 28.2483C39.8087 28.1271 40.4343 27.92 40.9583 27.4901C41.5018 27.0407 41.6934 26.4584 41.5448 25.7744C41.4079 25.1491 40.97 24.813 40.3796 24.6762C40.0355 24.5942 39.6797 24.5277 39.3278 24.5199C38.3698 24.5004 37.4079 24.5121 36.4499 24.5121M38.3659 12.4437C38.3424 11.5096 38.319 10.5482 38.014 9.62591C37.6425 8.516 36.7393 8.03529 35.5975 8.3245C34.8468 8.516 34.4988 9.06314 34.3189 9.75098C33.9788 11.0289 33.9709 12.3382 34.0726 13.6396C34.1234 14.2766 34.2603 14.9176 34.448 15.5311C34.6239 16.1056 35.0345 16.516 35.6405 16.6762C36.7823 16.9772 37.666 16.4691 38.0257 15.3045C38.3111 14.3782 38.3502 13.4246 38.3659 12.4398" fill="white"/>
<path d="M20.0666 17.7822C20.3755 18.0362 20.6844 18.2902 20.9816 18.5325C20.9738 18.5794 20.9816 18.6029 20.9698 18.6107C19.8398 19.8769 18.659 21.0807 17.1927 21.9561C15.3901 23.0347 13.4351 23.4685 11.3471 23.3982C8.9072 23.3122 6.63934 22.6947 4.63346 21.2682C2.16228 19.5135 0.656891 17.1491 0.195499 14.1515C-0.16423 11.8105 -0.0703873 9.49297 0.809385 7.27704C2.31868 3.49004 5.10658 1.16078 9.09488 0.316614C11.3745 -0.167998 13.6189 0.066492 15.8046 0.871573C16.4224 1.09825 17.0441 1.31319 17.6697 1.5086C18.3305 1.71964 18.7958 1.54378 19.1751 0.96146C19.2963 0.76996 19.4136 0.566736 19.4684 0.347879C19.5231 0.140747 19.6287 0.0938491 19.8164 0.105574C20.0158 0.117298 20.2152 0.105574 20.4342 0.105574V7.80855C20.1917 7.80855 19.961 7.832 19.7382 7.79683C19.6521 7.78511 19.5544 7.67177 19.5075 7.57797C18.9522 6.45242 18.354 5.35814 17.5915 4.36156C16.5984 3.06014 15.4097 1.99321 13.8144 1.48906C12.3794 1.03181 10.9483 1.06307 9.56409 1.68056C8.44971 2.1769 7.72244 3.06405 7.21412 4.1427C6.51813 5.61999 6.18186 7.19888 6.01763 8.81295C5.82213 10.6811 5.8104 12.5491 6.01763 14.4172C6.18186 15.9141 6.51031 17.3679 7.22194 18.7123C8.33632 20.8149 10.0998 21.8154 12.4654 21.7841C14.6433 21.7568 16.528 20.9712 18.1585 19.5565C18.8037 18.9937 19.4136 18.3879 20.0705 17.7783" fill="white"/>
<path d="M104.877 15.2419C104.939 12.9673 105.616 10.9625 107.223 9.31321C108.881 7.61316 110.918 7.01131 113.24 7.23798C116.912 7.59362 119.109 10.6693 119.602 13.3738C120.024 15.6835 119.747 17.8838 118.464 19.9004C116.458 23.0543 112.564 24.2111 109.193 22.5736C107.058 21.534 105.76 19.7558 105.201 17.4578C105.025 16.7348 104.978 15.9844 104.877 15.2419ZM109.756 15.9923C109.792 16.6254 109.835 17.6845 109.909 18.7397C109.964 19.4862 110.101 20.2209 110.429 20.9087C110.836 21.7607 111.555 22.2297 112.419 22.1945C113.401 22.1554 114.022 21.7021 114.366 20.7524C114.671 19.9043 114.769 19.0133 114.832 18.1183C114.976 16.2228 114.984 14.3235 114.832 12.428C114.757 11.4627 114.644 10.5013 114.292 9.59069C113.631 7.86719 111.543 7.96099 110.773 9.00838C110.343 9.59069 110.132 10.2512 110.014 10.9507C109.76 12.4788 109.776 14.0265 109.753 15.9923" fill="white"/>
<path d="M101.186 22.7572H92.4191C92.4191 22.5306 92.4113 22.3078 92.4269 22.085C92.4269 22.0381 92.5129 21.9795 92.5677 21.96C92.7084 21.9209 92.8531 21.9092 92.9978 21.874C93.7563 21.6825 94.0574 21.3307 94.1122 20.553C94.1434 20.088 94.1669 19.6229 94.1669 19.1578C94.1669 16.2267 94.1669 13.2956 94.1669 10.3645C94.1669 10.1104 94.1434 9.85639 94.1122 9.60236C94.0457 9.08258 93.772 8.72693 93.2558 8.58233C93.0447 8.52371 92.8336 8.46118 92.6185 8.43382C92.4465 8.41037 92.4074 8.33612 92.4152 8.1837C92.4269 8.00393 92.4152 7.82415 92.4152 7.62483C92.5364 7.61702 92.6263 7.6092 92.7123 7.6092C94.5931 7.6092 96.4739 7.6092 98.3585 7.60139C98.601 7.60139 98.6713 7.66392 98.6635 7.90622C98.6479 8.62532 98.6596 9.34833 98.6596 10.1534C98.7691 10.0323 98.8277 9.96582 98.8903 9.89938C99.4807 9.29362 100.04 8.64877 100.673 8.08991C101.498 7.3669 102.507 7.08551 103.586 7.26919C105.608 7.61702 106.101 9.32098 105.58 10.7279C105.072 12.1114 103.34 12.4436 102.233 11.3884C101.936 11.107 101.694 10.7709 101.416 10.47C100.927 9.94628 100.568 9.91501 99.9929 10.3527C99.1796 10.9702 98.8434 11.8378 98.8316 12.8149C98.8082 15.1793 98.8238 17.5437 98.8316 19.9082C98.8316 20.1466 98.8864 20.3811 98.9138 20.6156C98.9959 21.2565 99.3673 21.6356 99.9851 21.7724C100.306 21.8466 100.63 21.9052 100.955 21.9482C101.127 21.9678 101.193 22.0303 101.182 22.2062C101.166 22.3781 101.182 22.554 101.182 22.7572" fill="white"/>
<path d="M130.191 7.26907V12.0292C129.952 12.0292 129.721 12.0487 129.502 12.0175C129.424 12.0058 129.334 11.8729 129.307 11.7791C129.01 10.8802 128.584 10.0634 127.899 9.39511C127 8.51577 125.933 8.17967 124.689 8.40635C123.59 8.60566 122.644 10.1259 123.622 11.3296C123.981 11.7713 124.431 12.0996 124.928 12.3536C125.803 12.803 126.699 13.2212 127.579 13.6628C128.357 14.0536 129.127 14.464 129.733 15.101C131.102 16.5549 131.313 18.2549 130.617 20.0566C130.042 21.5456 129.014 22.6242 127.407 23.0229C126.206 23.3238 124.998 23.3082 123.805 22.9603C123.192 22.7806 122.589 22.5734 121.983 22.3702C121.475 22.1982 121.229 22.2764 120.935 22.7219C120.861 22.8353 120.806 22.9681 120.72 23.0698C120.658 23.144 120.552 23.2183 120.466 23.2183C119.715 23.2183 119.852 23.3238 119.852 22.632C119.844 21.1235 119.852 19.6189 119.844 18.1103C119.844 17.8563 119.891 17.7586 120.169 17.7664C120.756 17.7859 120.752 17.7664 120.908 18.337C121.197 19.3844 121.62 20.3575 122.507 21.0492C123.555 21.866 124.732 22.249 126.069 22.0106C126.879 21.866 127.45 21.4244 127.653 20.6115C127.868 19.7439 127.673 18.9701 126.957 18.3956C126.644 18.1455 126.284 17.9579 125.929 17.7742C124.853 17.2271 123.762 16.719 122.699 16.1484C121.815 15.6755 121.029 15.0541 120.497 14.1787C119.426 12.42 119.782 9.98133 121.311 8.51968C122.124 7.73805 123.113 7.37459 124.216 7.25344C125.28 7.13619 126.308 7.30034 127.325 7.59736C127.692 7.70288 128.064 7.80058 128.439 7.87484C128.928 7.97254 129.166 7.84357 129.416 7.4254C129.463 7.34723 129.588 7.2808 129.686 7.26516C129.843 7.23781 130.007 7.25735 130.187 7.25735" fill="white"/>
<path d="M29.3101 21.9677V22.7337C29.2045 22.7376 29.1068 22.7493 29.0129 22.7493C26.6082 22.7493 24.2074 22.7493 21.8066 22.7572C21.5407 22.7572 21.4352 22.679 21.4782 22.421C21.4821 22.3937 21.4821 22.3663 21.4782 22.339C21.4234 22.0498 21.5407 21.9364 21.8379 21.8778C22.7255 21.6941 23.0618 21.2799 23.1282 20.3654C23.1478 20.1309 23.1556 19.8925 23.1556 19.6541C23.1556 16.6057 23.1556 13.5534 23.1556 10.5051C23.1556 10.1963 23.1321 9.88368 23.093 9.57884C23.0305 9.05124 22.7177 8.72686 22.2172 8.57054C22.1546 8.551 22.096 8.53145 22.0373 8.51191C21.6228 8.38685 21.4469 8.08723 21.5094 7.61304H27.8047V7.98822C27.8047 11.9237 27.8047 15.8593 27.8047 19.7948C27.8047 20.0957 27.8243 20.3966 27.8399 20.6976C27.8712 21.2486 28.1332 21.6238 28.6806 21.784C28.8878 21.8465 29.095 21.9091 29.314 21.9716" fill="white"/>
<path d="M130.097 27.8612H46.3855V27.1812H130.073C130.081 27.2476 130.093 27.3062 130.097 27.3687C130.097 27.5212 130.097 27.6775 130.097 27.8612Z" fill="white"/>
<path d="M54.7726 32.7426V39.8125H53.3494V35.0172C53.3494 35.0172 53.3103 35.0016 53.2946 34.9937C53.1734 35.1462 53.0483 35.2908 52.9349 35.4471C52.3953 36.174 51.8635 36.9009 51.3239 37.6239C51.1323 37.8858 50.929 37.8819 50.7374 37.6161C50.1431 36.8071 49.5527 35.9942 48.9583 35.1852C48.9036 35.1149 48.8489 35.0485 48.7394 34.9117V39.8086H47.3239V32.7466C47.8361 32.7466 48.3484 32.7426 48.8684 32.7544C48.9271 32.7544 48.9896 32.8521 49.0365 32.9146C49.6582 33.7627 50.276 34.6107 50.8938 35.4588C50.9408 35.5253 50.9916 35.5878 51.0581 35.6738C51.1245 35.5917 51.1832 35.5253 51.234 35.4549C51.8401 34.6107 52.454 33.7705 53.0561 32.9224C53.15 32.7856 53.2555 32.7348 53.4198 32.7387C53.8655 32.7505 54.3113 32.7387 54.7805 32.7387" fill="white"/>
<path d="M97.9636 37.3463C98.6518 38.1435 99.3165 38.9056 99.9773 39.6716C99.9968 39.6911 99.9773 39.742 99.9773 39.8162C99.4455 39.8162 98.9215 39.824 98.3976 39.8084C98.3272 39.8084 98.249 39.7146 98.1904 39.6482C97.6156 38.9955 97.0408 38.3467 96.4777 37.6863C96.3604 37.5456 96.2392 37.483 96.0594 37.4909C95.7583 37.5026 95.4611 37.4909 95.1248 37.4909V39.7967H93.7055V32.7346C93.7915 32.7268 93.8697 32.719 93.9518 32.719C95.0466 32.719 96.1454 32.719 97.2402 32.7346C98.9567 32.7659 100.04 34.2979 99.5159 35.9315C99.3204 36.5334 98.9294 36.9515 98.3429 37.1899C98.2256 37.2368 98.1082 37.2837 97.9636 37.3384M96.2353 36.1816C96.5286 36.1816 96.8179 36.1855 97.1112 36.1816C97.772 36.1621 98.1943 35.7517 98.1982 35.1303C98.2021 34.5207 97.8033 34.0986 97.1503 34.0751C96.5403 34.0517 95.9303 34.0712 95.3164 34.0673C95.1757 34.0673 95.1209 34.1142 95.1209 34.2588C95.1209 34.8333 95.1248 35.4078 95.1209 35.9823C95.1209 36.1347 95.1757 36.1894 95.3321 36.1894C95.6332 36.1816 95.9342 36.1894 96.2353 36.1894" fill="white"/>
<path d="M68.5245 39.8006V32.7542C68.6222 32.7503 68.72 32.7385 68.8177 32.7385C69.6858 32.7385 70.5538 32.7385 71.4179 32.7385C73.3769 32.7385 74.7924 34.1103 74.8627 36.0683C74.894 37.0375 74.6711 37.9286 74.0338 38.6907C73.4512 39.3824 72.6887 39.7459 71.8168 39.7888C70.7337 39.8436 69.6467 39.8045 68.5284 39.8045M69.9595 38.4405C70.413 38.4405 70.8392 38.4405 71.2694 38.4405C72.5401 38.4405 73.2752 37.7879 73.4316 36.5255C73.5646 35.4625 72.9781 34.4034 72.0318 34.2119C71.3671 34.0751 70.6633 34.1103 69.9595 34.0673V38.4366V38.4405Z" fill="white"/>
<path d="M84.114 39.9804C81.9244 39.9804 80.4659 38.511 80.4659 36.3028C80.4659 34.1182 81.983 32.5862 84.1414 32.5901C86.2333 32.594 87.7582 34.1221 87.7582 36.213C87.7582 38.5031 86.3232 39.9843 84.114 39.9843M86.3428 36.213C86.3271 36.084 86.3193 35.8729 86.2763 35.6697C86.0769 34.7865 85.5881 34.1573 84.6693 33.9697C83.7426 33.7821 82.9136 33.9736 82.3349 34.7865C81.8853 35.4157 81.8149 36.1348 81.9478 36.8813C82.2411 38.511 84.2196 39.2535 85.5177 38.2139C86.1316 37.7215 86.3154 37.0415 86.3428 36.213Z" fill="white"/>
<path d="M23.9024 39.8125H22.4752V32.7583H23.879V35.6464H27.1791V32.7661H28.6024V39.8125H27.1947V37.0338H23.9024V39.8125Z" fill="white"/>
<path d="M106.542 37.5926C107.246 38.5853 108.142 38.9214 109.225 38.6048C109.389 38.5579 109.553 38.4837 109.69 38.3859C110.163 38.0498 110.159 37.3425 109.647 37.0923C109.272 36.9087 108.834 36.85 108.419 36.7445C107.934 36.6234 107.43 36.5608 106.961 36.4006C106.179 36.1309 105.737 35.5564 105.694 34.7201C105.647 33.8603 106.038 33.2272 106.8 32.8676C107.919 32.3361 109.064 32.3439 110.19 32.8559C110.667 33.0748 111.019 33.4421 111.254 33.9658C110.875 34.1612 110.507 34.3488 110.136 34.5403C109.506 33.8017 108.72 33.6258 107.829 33.8486C107.641 33.8955 107.449 34.0049 107.313 34.1378C106.976 34.4543 107.039 34.9546 107.457 35.1383C107.794 35.2829 108.173 35.3415 108.533 35.4275C109.057 35.5486 109.596 35.6151 110.104 35.7831C110.871 36.0332 111.348 36.5647 111.438 37.3933C111.532 38.2922 111.254 39.0269 110.46 39.5271C109.416 40.1837 107.184 40.1915 106.183 39.3513C105.835 39.0582 105.51 38.6165 105.393 38.1905C105.772 37.9951 106.155 37.7958 106.538 37.5965" fill="white"/>
<path d="M34.8311 32.7544H36.2388V33.0592C36.2388 34.2825 36.2388 35.5057 36.2388 36.729C36.2388 36.9439 36.2544 37.1706 36.3013 37.3777C36.5008 38.2532 37.2319 38.7417 38.1704 38.6479C39.0501 38.558 39.6015 37.9288 39.6132 36.9518C39.6288 35.6542 39.6171 34.3606 39.6171 33.0631V32.7544H41.0286C41.0326 32.8365 41.0443 32.9146 41.0443 32.9967C41.0443 34.3216 41.056 35.6425 41.0404 36.9674C41.0326 37.7764 40.8097 38.5189 40.231 39.113C39.4998 39.8594 38.5731 40.0431 37.5839 39.9493C36.6415 39.8633 35.8517 39.4725 35.3082 38.6557C34.9758 38.1555 34.8194 37.5927 34.8116 36.9987C34.792 35.6191 34.8077 34.2434 34.8077 32.8638C34.8077 32.8365 34.8194 32.8091 34.8272 32.7505" fill="white"/>
<path d="M28.0198 2.55212C28.0198 3.97469 26.878 5.12369 25.4704 5.11587C24.0549 5.11196 22.9171 3.95905 22.921 2.54821C22.9327 1.13346 24.051 0.0118143 25.4626 8.98426e-05C26.878 -0.0116346 28.0159 1.12564 28.0198 2.55212Z" fill="white"/>
<path d="M0.535675 27.8846V27.1968H27.3003C27.4176 27.8846 27.4059 27.9002 26.7607 27.9002C18.1194 27.9002 9.47807 27.9002 0.836753 27.9002C0.739 27.9002 0.641248 27.8924 0.535675 27.8846Z" fill="white"/>
<path d="M61.0171 32.7544H62.4169V33.0631C62.4169 35.2087 62.413 37.3543 62.4247 39.4999C62.4247 39.7422 62.3739 39.8438 62.1119 39.8282C61.76 39.8047 61.4003 39.8203 61.021 39.8203V32.7544H61.0171Z" fill="white"/>
</g>
<defs>
<clipPath id="clip0_65_844">
<rect width="131" height="40" fill="white"/>
</clipPath>
</defs>
</svg>
