<svg width="125" height="46" viewBox="0 0 125 46" fill="none" xmlns="http://www.w3.org/2000/svg">
<path d="M14.6694 40.7288V45.2932H11.9496V33.8852H17.6112C20.4235 33.8852 21.9345 35.2539 21.9345 37.0182C21.9345 38.5501 20.9909 39.3789 20.0596 39.7179C20.701 39.9251 21.6631 40.5153 21.6631 42.5558V43.1209C21.6631 43.8868 21.6693 44.7596 21.8481 45.2932H19.2085C18.9803 44.7972 18.9372 43.9434 18.9372 42.7316V42.5621C18.9372 41.3127 18.5795 40.7225 16.5072 40.7225H14.6756L14.6694 40.7288ZM14.6694 38.7636H17.0068C18.5301 38.7636 19.1222 38.2488 19.1222 37.2944C19.1222 36.3401 18.4376 35.8504 17.0746 35.8504H14.6694V38.7636Z" fill="#FDDB45"/>
<path d="M35.3113 40.3772H29.1502V43.2778H35.9465L35.6135 45.2995H26.4427V33.8915H35.5765V35.9132H29.144V38.3555H35.3051V40.3772H35.3113Z" fill="#FDDB45"/>
<path d="M42.49 45.2932L39.209 33.8852H42.1817C43.3905 39.1277 43.9394 41.4508 44.0874 42.7065H44.1059C44.5931 40.6095 45.8389 36.6415 46.5913 33.8852H49.0952C49.7551 36.0764 51.0626 40.5027 51.482 42.5872H51.5005C51.926 40.0758 53.1965 35.6557 53.6467 33.8852H56.3541L52.8634 45.2932H49.9771C49.2987 42.7693 48.164 39.0838 47.7138 37.1249H47.6953C47.2265 39.1529 46.0671 42.9953 45.3763 45.2932H42.49Z" fill="#FDDB45"/>
<path d="M61.5963 42.6625L60.5911 45.2995H57.8528L62.2254 33.8915H65.7223L70.2861 45.2995H67.3566L66.2958 42.6625H61.5902H61.5963ZM65.7038 40.6409C64.791 38.2362 64.2051 36.698 63.8967 35.6683H63.8782C63.5637 36.7921 62.9161 38.5815 62.1822 40.6409H65.7038Z" fill="#FDDB45"/>
<path d="M76.7063 40.7288V45.2932H73.9865V33.8852H79.6481C82.4604 33.8852 83.9713 35.2539 83.9713 37.0182C83.9713 38.5501 83.0277 39.3789 82.0965 39.7179C82.7379 39.9251 83.7 40.5153 83.7 42.5558V43.1209C83.7 43.8868 83.7061 44.7596 83.885 45.2932H81.2454C81.0172 44.7972 80.974 43.9434 80.974 42.7316V42.5621C80.974 41.3127 80.6163 40.7225 78.5441 40.7225H76.7124L76.7063 40.7288ZM76.7063 38.7636H79.0437C80.567 38.7636 81.159 38.2488 81.159 37.2944C81.159 36.3401 80.4745 35.8504 79.1115 35.8504H76.7063V38.7636Z" fill="#FDDB45"/>
<path d="M88.4858 33.8915H93.5923C97.342 33.8915 99.7966 36.0764 99.7966 39.4542C99.7966 42.8321 97.416 45.2995 93.4751 45.2995H88.4858V33.8915ZM91.2734 43.303H93.3641C95.8372 43.303 96.9288 41.6768 96.9288 39.4542C96.9288 37.5895 95.905 35.8818 93.3826 35.8818H91.2796V43.303H91.2734Z" fill="#FDDB45"/>
<path d="M106.161 41.9531C106.457 43.0958 107.382 43.5981 108.875 43.5981C110.367 43.5981 110.996 43.077 110.996 42.2419C110.996 41.3127 110.373 40.9109 108.172 40.4588C104.663 39.7305 103.799 38.6004 103.799 37.0621C103.799 35.0719 105.477 33.722 108.529 33.722C111.952 33.722 113.315 35.3481 113.5 37.0182H110.694C110.559 36.315 110.121 35.5553 108.462 35.5553C107.333 35.5553 106.648 35.9697 106.648 36.7796C106.648 37.5895 107.197 37.8972 109.276 38.3241C113.025 39.1089 113.846 40.3395 113.846 41.9468C113.846 44.0313 112.063 45.4565 108.659 45.4565C105.255 45.4565 103.663 44.0313 103.355 41.9531H106.161Z" fill="#FDDB45"/>
<path d="M68.7381 0.52122C68.8491 0.52122 68.9169 0.508663 68.9848 0.508663C72.3398 0.508663 75.6948 0.496106 79.0498 0.52122C80.5546 0.533777 82.0409 0.728411 83.4594 1.29348C84.4832 1.70158 85.3959 2.28548 85.988 3.26493C87.2091 5.27405 86.6849 7.798 84.773 9.1416C84.0268 9.669 83.2189 10.0457 82.3308 10.2529C82.2506 10.2717 82.1519 10.3534 82.1273 10.4287C82.0779 10.5857 82.2136 10.6108 82.3308 10.6359C83.6198 10.9121 84.8039 11.4144 85.8523 12.2432C88.1959 14.1016 88.3933 18.0257 85.7968 20.0913C84.5264 21.1021 83.0832 21.6861 81.5044 21.9121C80.5669 22.0502 79.6172 22.1193 78.6674 22.1255C75.4604 22.1507 72.2534 22.1318 69.0464 22.1381C68.7936 22.1381 68.7196 22.0753 68.7257 21.8179C68.7442 21.3219 68.7257 21.3282 69.2315 21.2842C69.4658 21.2654 69.7002 21.234 69.9284 21.1838C70.9213 20.9766 71.4393 20.3487 71.4949 19.3128C71.4949 19.1872 71.4949 19.0616 71.4949 18.9423C71.4949 13.8568 71.4949 8.77117 71.4949 3.68559C71.4949 3.32143 71.4393 2.93844 71.3407 2.58685C71.1988 2.06573 70.835 1.71414 70.3169 1.57601C69.9037 1.46927 69.4781 1.40649 69.0588 1.36254C68.8121 1.33743 68.6826 1.28092 68.7257 0.998386C68.7504 0.853981 68.7257 0.703296 68.7257 0.52122H68.7381ZM76.5274 15.4138C76.5274 16.613 76.5274 17.8122 76.5274 19.0051C76.5274 19.25 76.5459 19.5011 76.5767 19.746C76.6754 20.5496 77.1318 21.0205 77.9335 21.0645C78.3837 21.0896 78.8401 21.0645 79.2903 21.008C80.6286 20.8196 81.5229 20.0662 81.9238 18.7477C82.3925 17.2095 82.3986 15.6524 81.9793 14.1079C81.5661 12.5885 80.5793 11.653 79.0498 11.3893C78.3035 11.2575 77.545 11.2449 76.7926 11.1758C76.5767 11.157 76.5335 11.2512 76.5335 11.4521C76.5397 12.7769 76.5335 14.0953 76.5335 15.4201L76.5274 15.4138ZM76.5274 10.1776C76.5952 10.1901 76.6322 10.2027 76.6631 10.2027C77.434 10.121 78.211 10.0897 78.9696 9.95153C80.1106 9.74434 80.8938 9.05998 81.1837 7.8859C81.5599 6.38534 81.5414 4.88478 81.0727 3.40305C80.8075 2.58057 80.3634 1.90249 79.4938 1.67019C79.0436 1.55089 78.5687 1.48811 78.1 1.49439C76.8974 1.50694 76.5335 1.91505 76.5335 3.13308C76.5335 5.38706 76.5335 7.64104 76.5335 9.89502C76.5335 9.98292 76.5335 10.0708 76.5335 10.1776H76.5274Z" fill="#FDDB45"/>
<path d="M64.3285 21.3784V22.1067C64.2113 22.1067 64.1064 22.1067 64.0078 22.1067C61.473 22.1067 58.9321 22.1067 56.3973 22.1067C55.9348 22.1067 55.9841 22.1444 55.9779 21.6986C55.9779 21.6295 55.9718 21.5605 55.9656 21.4349C55.8608 21.5165 55.7806 21.573 55.7004 21.6358C54.7445 22.3641 53.6775 22.6906 52.4811 22.5085C51.5807 22.3704 50.9578 21.887 50.6802 20.9891C50.6186 20.7945 50.5692 20.5999 50.5075 20.3927C50.2177 20.6375 49.9401 20.895 49.6441 21.121C48.3922 22.0565 47.0045 22.6153 45.438 22.5525C44.2909 22.5023 43.2918 22.0439 42.6134 21.0708C42.0398 20.2483 42.0028 19.2939 42.1755 18.3333C42.4099 17.0651 43.224 16.2426 44.2662 15.6147C45.5059 14.8739 46.8442 14.359 48.1948 13.8881C48.8794 13.6496 49.5701 13.4361 50.267 13.2289C50.4459 13.1724 50.5199 13.0908 50.5137 12.8961C50.489 11.9481 50.489 11 50.4644 10.0457C50.4397 9.10393 49.8661 8.39445 48.9657 8.16843C48.2688 7.99263 47.5657 7.95496 46.875 8.18726C46.6098 8.27516 46.3508 8.4384 46.1411 8.62676C45.8389 8.89673 45.8389 9.31112 46.0856 9.6376C46.1781 9.75689 46.2768 9.8699 46.3693 9.98292C46.8442 10.5982 46.9675 11.2888 46.6715 12.0109C46.3816 12.7078 45.7957 13.0405 45.0865 13.0908C44.7164 13.1159 44.3094 13.0657 43.9579 12.9401C42.9896 12.5948 42.5456 11.6969 42.6997 10.5605C42.8601 9.39901 43.5138 8.6142 44.4698 8.0303C45.4812 7.41501 46.5851 7.11992 47.7508 7.0383C49.3604 6.92528 50.9331 7.08853 52.4379 7.74777C53.807 8.34423 54.5286 9.40529 54.7136 10.8745C54.7753 11.3579 54.8 11.8476 54.8 12.3311C54.8061 14.7357 54.8 17.1404 54.8062 19.5451C54.8062 19.746 54.8247 19.9595 54.8987 20.1415C55.0713 20.5622 55.4599 20.6501 55.8176 20.3738C55.9286 20.2922 56.0273 20.1918 56.1506 20.085C56.2863 20.2797 56.422 20.4492 56.5392 20.6375C56.57 20.6878 56.5515 20.8071 56.5083 20.8573C56.4097 20.9954 56.2801 21.1147 56.1568 21.2591C56.9339 21.3156 57.5074 20.851 57.5814 20.0787C57.6308 19.5702 57.6493 19.0491 57.6493 18.5405C57.6493 15.7277 57.6493 12.915 57.6493 10.1022C57.6493 9.80084 57.6246 9.49947 57.5814 9.20438C57.5136 8.77116 57.2669 8.48235 56.8537 8.34423C56.6995 8.294 56.5392 8.25005 56.3726 8.21238C55.9779 8.12448 55.9779 8.12448 55.9779 7.7101C55.9779 7.61592 55.9779 7.51546 55.9779 7.40245H61.9232V9.782C61.9232 9.782 61.9602 9.80084 61.9787 9.8134C62.0342 9.74433 62.0959 9.67527 62.1514 9.61248C62.725 9.01603 63.2615 8.3819 63.8783 7.83567C64.6985 7.11364 65.6976 6.84366 66.7645 7.06969C68.5531 7.45268 69.0033 8.97836 68.5901 10.2968C68.146 11.7158 66.45 12.1051 65.3646 11.0565C65.0809 10.7866 64.8527 10.4538 64.5813 10.1587C64.1003 9.63132 63.7672 9.60621 63.206 10.0457C62.5646 10.5543 62.2316 11.2386 62.1391 12.0485C62.1021 12.3499 62.0897 12.6513 62.0897 12.9526C62.0897 14.899 62.0774 16.839 62.0897 18.7854C62.0897 19.2625 62.1576 19.7397 62.2316 20.2106C62.2994 20.6564 62.577 20.9452 62.9963 21.0645C63.4219 21.1838 63.8597 21.2717 64.3161 21.3784H64.3285ZM50.4644 14.2774C49.6996 14.3904 48.5525 14.9555 47.8803 15.5457C46.8195 16.4812 46.4001 17.875 46.801 19.1181C47.0415 19.859 47.6151 20.2985 48.312 20.2671C49.2371 20.2294 49.8661 19.6644 50.4212 18.9926C50.452 18.9549 50.4644 18.8921 50.4644 18.8482C50.4644 17.335 50.4644 15.8156 50.4644 14.2837V14.2774Z" fill="#FDDB45"/>
<path d="M42.1323 9.37389H39.6037C39.7085 9.49946 39.7702 9.56853 39.8319 9.63759C41.2195 11.27 41.2134 13.9823 39.8134 15.508C39.0918 16.2991 38.1544 16.7009 37.1553 16.952C36.0328 17.2346 34.8796 17.3099 33.7263 17.2346C33.0047 17.1844 32.4681 17.5108 32.0673 18.0571C31.506 18.8168 31.9192 19.7523 32.8443 19.8402C33.5351 19.9092 34.2382 19.9029 34.9351 19.9281C36.0328 19.9657 37.1306 19.972 38.2284 20.0536C39.1658 20.1227 40.0601 20.4115 40.8372 20.9828C41.8301 21.7111 42.194 22.7408 42.1693 23.9463C42.1323 25.8424 41.1517 27.073 39.5174 27.8327C38.4566 28.3287 37.328 28.5484 36.1809 28.6489C34.5095 28.7933 32.8382 28.7807 31.1792 28.448C30.3219 28.2722 29.4832 28.0273 28.7678 27.4811C27.2814 26.351 27.8427 24.5553 29.0576 23.871C29.3845 23.6826 29.773 23.6135 30.1369 23.4754C30.2232 23.444 30.2972 23.3812 30.3836 23.331C30.3157 23.2619 30.2602 23.1803 30.1801 23.1364C30.0382 23.0547 29.8779 22.992 29.7299 22.9229C27.9907 22.1255 28.0338 20.1101 28.8418 19.0553C29.4708 18.2391 30.3157 17.7117 31.2162 17.266C31.3334 17.2095 31.4629 17.1718 31.5739 17.109C31.6356 17.0776 31.7281 17.0023 31.7219 16.9583C31.7096 16.8893 31.6417 16.8139 31.58 16.7762C31.0928 16.4812 30.5748 16.2363 30.1246 15.8973C28.6752 14.8111 28.0277 13.3231 28.2065 11.496C28.3545 9.93896 29.1871 8.81511 30.4576 8.00518C31.5184 7.3271 32.7087 7.06968 33.9421 7.00062C35.2989 6.919 36.6187 7.10735 37.8954 7.60335C38.0064 7.6473 38.1359 7.6473 38.2531 7.6473C39.4187 7.6473 40.5905 7.6473 41.7561 7.6473C42.1816 7.6473 42.1385 7.59708 42.1446 8.05541C42.1446 8.47607 42.1446 8.903 42.1446 9.35506L42.1323 9.37389ZM34.7809 23.8333C34.7809 23.8333 34.7809 23.8207 34.7809 23.8082C33.9791 23.8082 33.1774 23.8521 32.3756 23.7956C31.8206 23.7579 31.4444 23.9714 31.1237 24.3795C31.0867 24.4297 31.0435 24.4737 31.0065 24.5239C30.3959 25.3652 30.5378 26.3886 31.4012 26.9537C31.7897 27.2048 32.2399 27.3995 32.6902 27.4999C34.2443 27.8452 35.8108 27.7636 37.365 27.4623C37.9817 27.343 38.5799 27.1421 39.0795 26.7214C39.5975 26.2882 39.7764 25.7168 39.6407 25.0576C39.5112 24.4486 39.098 24.1221 38.5306 23.9902C38.2037 23.9086 37.8645 23.8458 37.5253 23.8396C36.6126 23.8207 35.6936 23.8333 34.7809 23.8333ZM36.6064 12.105C36.5879 11.1947 36.5632 10.2654 36.2734 9.36761C35.9218 8.28771 35.0584 7.8231 33.9668 8.10563C33.2514 8.28771 32.9183 8.82138 32.7457 9.49318C32.425 10.7363 32.4126 12.0046 32.5113 13.2728C32.5606 13.8944 32.6902 14.516 32.869 15.1124C33.0355 15.6712 33.4241 16.0731 34.01 16.2237C35.1016 16.5126 35.9465 16.0228 36.2857 14.8927C36.5571 13.9949 36.5941 13.0657 36.6126 12.1113L36.6064 12.105Z" fill="#FDDB45"/>
<path d="M19.1529 17.2785C19.449 17.5234 19.7388 17.7683 20.0225 18.0068C20.0225 18.0508 20.0225 18.0759 20.0102 18.0822C18.9309 19.3128 17.8085 20.4806 16.4023 21.3345C14.6817 22.383 12.8191 22.8036 10.8271 22.7346C8.50202 22.6529 6.3373 22.0502 4.41926 20.6627C2.06336 18.9612 0.632543 16.6632 0.188497 13.75C-0.156871 11.4772 -0.0643619 9.22322 0.774391 7.06969C2.21137 3.39049 4.87565 1.13023 8.68087 0.307746C10.8579 -0.163142 12.998 0.0628839 15.0825 0.847697C15.6684 1.06744 16.2666 1.27464 16.8649 1.46927C17.4939 1.67018 17.938 1.50694 18.3019 0.935596C18.419 0.753519 18.53 0.552607 18.5856 0.339138C18.6411 0.131947 18.7397 0.0942764 18.9186 0.100555C19.1098 0.113112 19.301 0.100555 19.5106 0.100555V7.58453C19.2763 7.58453 19.0604 7.60337 18.8507 7.57197C18.7706 7.55942 18.6719 7.4464 18.6287 7.35851C18.0983 6.26605 17.5309 5.1987 16.8032 4.23181C15.8534 2.96355 14.7187 1.93388 13.2015 1.43788C11.8324 0.992103 10.4694 1.02349 9.14342 1.62623C8.08264 2.10968 7.38574 2.96983 6.89852 4.01834C6.23245 5.45612 5.91792 6.98807 5.75757 8.5577C5.57255 10.3722 5.56022 12.1867 5.75757 14.0012C5.91175 15.4578 6.22628 16.8704 6.90469 18.1764C7.96546 20.2232 9.64913 21.19 11.9064 21.1649C13.9847 21.1398 15.7856 20.3738 17.3398 18.9989C17.9565 18.4526 18.5362 17.8624 19.1653 17.2723L19.1529 17.2785Z" fill="#FDDB45"/>
<path d="M100.08 14.8174C100.142 12.6074 100.79 10.6547 102.319 9.05372C103.898 7.40247 105.847 6.81857 108.061 7.03204C111.564 7.37736 113.661 10.3659 114.129 12.9966C114.53 15.2443 114.265 17.379 113.044 19.3379C111.126 22.4081 107.413 23.5257 104.2 21.9372C102.165 20.9264 100.919 19.1998 100.389 16.9646C100.222 16.2614 100.179 15.5331 100.08 14.8111V14.8174ZM104.737 15.5457C104.767 16.161 104.811 17.1907 104.885 18.2141C104.934 18.9424 105.07 19.6581 105.384 20.3236C105.773 21.1524 106.457 21.6045 107.284 21.5731C108.221 21.5354 108.813 21.0959 109.14 20.1667C109.436 19.3442 109.522 18.4778 109.59 17.6113C109.726 15.7654 109.732 13.9258 109.59 12.08C109.516 11.1445 109.411 10.209 109.078 9.31742C108.449 7.64106 106.457 7.73523 105.717 8.75235C105.304 9.31742 105.107 9.9641 104.996 10.6422C104.755 12.1302 104.767 13.6308 104.743 15.5457H104.737Z" fill="#FDDB45"/>
<path d="M96.5587 22.1193H88.1897C88.1897 21.8995 88.1835 21.6861 88.1959 21.4663C88.1959 21.4224 88.276 21.3596 88.3315 21.347C88.4672 21.3093 88.6091 21.2968 88.7386 21.2654C89.4602 21.077 89.75 20.738 89.7994 19.9783C89.8302 19.5262 89.8549 19.0742 89.8549 18.6221C89.8549 15.7717 89.8549 12.9213 89.8549 10.0771C89.8549 9.83224 89.8302 9.5811 89.7994 9.33624C89.7377 8.82768 89.4725 8.48237 88.9791 8.34424C88.7756 8.28773 88.5782 8.22495 88.3685 8.19983C88.2082 8.181 88.165 8.10566 88.1774 7.95497C88.1897 7.77917 88.1774 7.60338 88.1774 7.41502C88.2945 7.40874 88.3747 7.39618 88.4611 7.39618C90.2557 7.39618 92.0504 7.39618 93.8513 7.39618C94.0795 7.39618 94.1473 7.45269 94.1473 7.69127C94.1288 8.39447 94.1473 9.09138 94.1473 9.87619C94.2521 9.76318 94.3077 9.69412 94.3632 9.63133C94.9306 9.04115 95.4609 8.4133 96.0653 7.87335C96.8547 7.17016 97.8107 6.89391 98.8468 7.07598C100.777 7.41502 101.246 9.06627 100.752 10.435C100.265 11.7786 98.6124 12.0988 97.5578 11.0817C97.2741 10.8054 97.0459 10.4789 96.7746 10.1901C96.312 9.68156 95.9667 9.65017 95.4178 10.0771C94.6407 10.6798 94.32 11.5212 94.3077 12.4692C94.283 14.7671 94.3015 17.0651 94.3077 19.363C94.3077 19.589 94.357 19.8213 94.3878 20.0474C94.468 20.6689 94.8195 21.0394 95.4116 21.1712C95.72 21.2403 96.0283 21.3031 96.3367 21.3407C96.5032 21.3596 96.5649 21.4224 96.5526 21.5919C96.5402 21.7614 96.5526 21.9246 96.5526 22.1256L96.5587 22.1193Z" fill="#FDDB45"/>
<path d="M124.238 7.06343V11.6907C124.009 11.6907 123.794 11.7095 123.578 11.6781C123.504 11.6656 123.417 11.54 123.387 11.4458C123.103 10.5731 122.696 9.78202 122.042 9.12905C121.185 8.27518 120.161 7.9487 118.977 8.16844C117.928 8.36308 117.022 9.83852 117.959 11.0063C118.305 11.4395 118.73 11.7535 119.205 11.9983C120.044 12.4315 120.895 12.8396 121.734 13.2729C122.474 13.6496 123.214 14.0514 123.787 14.673C125.095 16.0856 125.292 17.7369 124.632 19.4886C124.083 20.9326 123.103 21.9811 121.573 22.3704C120.426 22.6592 119.273 22.6467 118.138 22.3076C117.552 22.1318 116.979 21.9309 116.399 21.7363C115.918 21.573 115.677 21.6484 115.4 22.0816C115.326 22.1946 115.277 22.3202 115.196 22.4206C115.135 22.4897 115.036 22.565 114.956 22.565C114.24 22.565 114.37 22.6655 114.37 21.9937C114.364 20.5308 114.37 19.0679 114.364 17.5988C114.364 17.3539 114.407 17.2534 114.672 17.266C115.233 17.2848 115.227 17.266 115.375 17.8185C115.653 18.8356 116.054 19.7837 116.899 20.4555C117.898 21.2528 119.02 21.6233 120.297 21.391C121.068 21.2528 121.617 20.8259 121.808 20.0348C122.011 19.1935 121.826 18.4401 121.142 17.8813C120.846 17.6427 120.5 17.4543 120.161 17.2785C119.137 16.7449 118.095 16.2489 117.084 15.6964C116.239 15.2318 115.492 14.6353 114.98 13.7814C113.957 12.0737 114.302 9.7004 115.751 8.28146C116.528 7.52176 117.472 7.17016 118.527 7.05087C119.544 6.93786 120.525 7.09482 121.493 7.38363C121.845 7.49036 122.196 7.57826 122.56 7.65361C123.029 7.74778 123.257 7.62221 123.491 7.22039C123.535 7.14505 123.652 7.08226 123.744 7.06343C123.892 7.03831 124.053 7.05715 124.225 7.05715L124.238 7.06343Z" fill="#FDDB45"/>
<path d="M27.9722 21.3533V22.0942C27.8674 22.0942 27.7749 22.113 27.6885 22.113C25.3943 22.113 23.1062 22.113 20.812 22.113C20.5591 22.113 20.4604 22.0377 20.4974 21.7865C20.4974 21.7614 20.4974 21.73 20.4974 21.7049C20.4481 21.4224 20.5591 21.3156 20.8366 21.2591C21.6877 21.0833 22.0084 20.6752 22.0701 19.79C22.0886 19.5577 22.0948 19.3316 22.0948 19.0993C22.0948 16.1359 22.0948 13.1724 22.0948 10.209C22.0948 9.90761 22.0701 9.60624 22.0393 9.30487C21.9776 8.79004 21.6816 8.47611 21.2005 8.32543C21.145 8.30659 21.0833 8.28776 21.0278 8.26892C20.6331 8.14754 20.4646 7.85663 20.5221 7.39621H26.5291V7.76036C26.5291 11.584 26.5291 15.4076 26.5291 19.2375C26.5291 19.5326 26.5476 19.8214 26.5661 20.1165C26.5969 20.6501 26.8498 21.0206 27.3678 21.1712C27.5652 21.234 27.7687 21.2905 27.9722 21.3533Z" fill="#FDDB45"/>
<path d="M124.145 27.0793H44.2662V26.42H124.127C124.133 26.4828 124.145 26.5456 124.145 26.6021C124.145 26.7528 124.145 26.9035 124.145 27.0793Z" fill="#FDDB45"/>
<path d="M26.7387 2.48011C26.7387 3.86139 25.6533 4.97896 24.3088 4.97268C22.9582 4.97268 21.8727 3.84883 21.8789 2.47384C21.8851 1.10512 22.952 0.012663 24.3027 0.000105966C25.6533 -0.012451 26.7387 1.09257 26.7449 2.48011H26.7387Z" fill="#FDDB45"/>
<path d="M0.515414 27.1044V26.4326H26.0542C26.1652 27.1044 26.159 27.117 25.5361 27.117C17.2905 27.117 9.04479 27.117 0.79911 27.117C0.7066 27.117 0.614091 27.1044 0.509247 27.1044H0.515414Z" fill="#FDDB45"/>
</svg>
